G04*
G04 #@! TF.GenerationSoftware,Altium Limited,Altium Designer,21.6.1 (37)*
G04*
G04 Layer_Color=0*
%FSLAX25Y25*%
%MOIN*%
G70*
G04*
G04 #@! TF.SameCoordinates,A58106A6-3A56-46F9-B803-770B48F501EE*
G04*
G04*
G04 #@! TF.FilePolarity,Positive*
G04*
G01*
G75*
%ADD12C,0.01000*%
D12*
X24016Y133858D02*
X24366Y133897D01*
X24699Y134014D01*
X24998Y134201D01*
X25248Y134451D01*
X25435Y134749D01*
X25552Y135082D01*
X25591Y135433D01*
X25591Y218898D02*
X25591Y135433D01*
X25552Y219248D02*
X25591Y218898D01*
X25435Y219581D02*
X25552Y219248D01*
X25248Y219880D02*
X25435Y219581D01*
X24998Y220129D02*
X25248Y219880D01*
X24699Y220317D02*
X24998Y220129D01*
X24366Y220433D02*
X24699Y220317D01*
X24016Y220472D02*
X24366Y220433D01*
X0Y220472D02*
X24016D01*
X0Y314961D02*
X0Y220472D01*
X0Y314961D02*
X22799Y314957D01*
X23434Y314375D01*
X24177Y313941D01*
X24994Y313673D01*
X25850Y313583D01*
X65220D01*
X66077Y313673D01*
X66895Y313942D01*
X67638Y314377D01*
X68272Y314961D01*
X152067Y314957D01*
X152702Y314375D01*
X153445Y313941D01*
X154262Y313673D01*
X155118Y313583D01*
X194488D01*
X195345Y313673D01*
X196163Y313942D01*
X196906Y314377D01*
X197539Y314961D01*
X314961Y314961D01*
X314961Y0D01*
X0Y-0D02*
X314961Y0D01*
X0Y-0D02*
Y133858D01*
X24016D01*
M02*
