G04*
G04 #@! TF.GenerationSoftware,Altium Limited,Altium Designer,21.6.1 (37)*
G04*
G04 Layer_Physical_Order=4*
G04 Layer_Color=16711680*
%FSLAX25Y25*%
%MOIN*%
G70*
G04*
G04 #@! TF.SameCoordinates,A58106A6-3A56-46F9-B803-770B48F501EE*
G04*
G04*
G04 #@! TF.FilePolarity,Positive*
G04*
G01*
G75*
%ADD12C,0.01000*%
%ADD18C,0.00800*%
%ADD168C,0.02000*%
%ADD176C,0.02000*%
%ADD177C,0.14173*%
%ADD178O,0.11812X0.05906*%
%ADD179O,0.05906X0.11812*%
%ADD180C,0.07874*%
%ADD181O,0.09843X0.11024*%
%ADD182C,0.03960*%
%ADD183C,0.07087*%
%ADD184R,0.07087X0.07087*%
D12*
X127880Y216200D02*
Y223807D01*
D18*
X61200Y102169D02*
Y138067D01*
Y102169D02*
X61669Y101700D01*
X61200Y138067D02*
X69860Y146727D01*
X146974Y158252D02*
X147442Y157783D01*
Y143158D02*
Y157783D01*
X133245Y158252D02*
X146974D01*
X147442Y143158D02*
X153349Y137250D01*
X173000Y84268D02*
Y101700D01*
X232733Y213566D02*
Y225839D01*
X232667Y225905D02*
X232733Y225839D01*
Y213566D02*
X232800Y213500D01*
X113100Y211422D02*
X117104Y207418D01*
X113100Y211422D02*
Y217535D01*
X98207Y224382D02*
X110600Y236775D01*
Y280500D01*
X98207Y207431D02*
Y224382D01*
X110600Y280500D02*
X127687Y297587D01*
X158262D01*
X61669Y101700D02*
X87153D01*
X102900Y85953D01*
X46933Y263600D02*
X53800Y256733D01*
X35828Y263600D02*
X46933D01*
X32065Y259837D02*
X35828Y263600D01*
X53845Y218791D02*
X65136Y207500D01*
X53845Y218791D02*
Y252448D01*
X135424Y172687D02*
X161041D01*
X158262Y297587D02*
X164077Y303402D01*
X205700Y105900D02*
Y203258D01*
Y105900D02*
X273400Y38200D01*
X53013Y263162D02*
X69833Y246342D01*
Y207500D02*
Y246342D01*
X58500Y67628D02*
Y74851D01*
Y67628D02*
X71049Y55079D01*
X150973D01*
X163751Y42300D01*
X209500D01*
X76100Y74691D02*
X76109Y74700D01*
X76100Y61369D02*
X76569Y60900D01*
X198800D01*
X76100Y61369D02*
Y74691D01*
X198800Y60900D02*
X217400Y42300D01*
X292748Y217452D02*
Y242339D01*
Y217452D02*
X306600Y203600D01*
X30900Y264469D02*
X32982Y266550D01*
X59313D01*
D168*
X2362Y295276D02*
D03*
Y285433D02*
D03*
Y275590D02*
D03*
Y265748D02*
D03*
Y255906D02*
D03*
Y246063D02*
D03*
Y236221D02*
D03*
Y226378D02*
D03*
X3937Y222835D02*
D03*
X13780D02*
D03*
X23622D02*
D03*
X2362Y23099D02*
D03*
Y32943D02*
D03*
Y42786D02*
D03*
Y52630D02*
D03*
Y62474D02*
D03*
Y72317D02*
D03*
Y82161D02*
D03*
Y92005D02*
D03*
Y101848D02*
D03*
Y111692D02*
D03*
Y121535D02*
D03*
Y131379D02*
D03*
X5906D02*
D03*
X15748D02*
D03*
X25591D02*
D03*
X27932Y141732D02*
D03*
X27894Y151575D02*
D03*
X27857Y161417D02*
D03*
X27819Y171260D02*
D03*
X27782Y181102D02*
D03*
X27744Y190945D02*
D03*
X27707Y200787D02*
D03*
X27669Y210630D02*
D03*
X27632Y220472D02*
D03*
X127880Y223807D02*
D03*
Y216200D02*
D03*
X286000Y223198D02*
D03*
X90600Y132100D02*
D03*
X195900Y296150D02*
D03*
X84033Y133900D02*
D03*
X175469Y204570D02*
D03*
X78361Y133900D02*
D03*
X176751Y285769D02*
D03*
X175469Y198639D02*
D03*
X89831Y124192D02*
D03*
X123500Y123753D02*
D03*
X158256D02*
D03*
X180788Y178648D02*
D03*
X190000Y304154D02*
D03*
X159847Y109850D02*
D03*
X153349Y137250D02*
D03*
X173000Y101700D02*
D03*
Y58700D02*
D03*
X232800Y213500D02*
D03*
X113100Y217535D02*
D03*
X123122Y227179D02*
D03*
X132200D02*
D03*
X123122Y236336D02*
D03*
X121829Y207418D02*
D03*
X117104D02*
D03*
X154400Y269100D02*
D03*
X121200Y247000D02*
D03*
X69860Y146727D02*
D03*
X133245Y158252D02*
D03*
X58104Y133900D02*
D03*
X173000Y84268D02*
D03*
X102900Y85953D02*
D03*
X23200Y56500D02*
D03*
X252400Y84268D02*
D03*
X121829Y154900D02*
D03*
X74542Y146727D02*
D03*
Y207637D02*
D03*
X32174Y154900D02*
D03*
X32065Y207418D02*
D03*
X113100Y180467D02*
D03*
X63498Y172687D02*
D03*
X107656Y146727D02*
D03*
X53845Y252448D02*
D03*
X107513Y258964D02*
D03*
X75200Y52800D02*
D03*
X56400Y42100D02*
D03*
X201321Y186000D02*
D03*
X155700Y292100D02*
D03*
X150061Y292100D02*
D03*
X167164Y285769D02*
D03*
X172400Y290351D02*
D03*
X161041Y172687D02*
D03*
X135424D02*
D03*
X201025Y178648D02*
D03*
X152334Y203258D02*
D03*
X149969Y105645D02*
D03*
X113925Y105600D02*
D03*
X123500Y110052D02*
D03*
X87500Y106474D02*
D03*
X47413Y141964D02*
D03*
X80955Y106474D02*
D03*
X207700Y220500D02*
D03*
X97788Y227591D02*
D03*
X135800Y205400D02*
D03*
X147442Y227179D02*
D03*
X139200Y183500D02*
D03*
X119186Y135547D02*
D03*
X93482Y207431D02*
D03*
X205700Y203258D02*
D03*
X64368Y227600D02*
D03*
X65136Y133900D02*
D03*
X233100Y42300D02*
D03*
X121300Y87300D02*
D03*
X43100Y106800D02*
D03*
X137454Y141700D02*
D03*
X141900Y148429D02*
D03*
X134706Y148429D02*
D03*
X53660Y62754D02*
D03*
X273400Y38200D02*
D03*
X94300Y273668D02*
D03*
X98207Y207431D02*
D03*
X88758Y207500D02*
D03*
X69833D02*
D03*
X65136D02*
D03*
X162800Y51700D02*
D03*
X217400Y42300D02*
D03*
X209500D02*
D03*
X58500Y74851D02*
D03*
X76109Y74700D02*
D03*
X44347Y74851D02*
D03*
X90262Y74700D02*
D03*
X51260Y27400D02*
D03*
X42700Y58500D02*
D03*
X33100Y121602D02*
D03*
X292748Y242339D02*
D03*
X306600Y203600D02*
D03*
X262400D02*
D03*
X272976Y220500D02*
D03*
X102900Y57600D02*
D03*
X184202Y92731D02*
D03*
X162800Y29000D02*
D03*
X276300Y21800D02*
D03*
X272900Y54000D02*
D03*
X187600Y10200D02*
D03*
X284000Y14800D02*
D03*
X164077Y303402D02*
D03*
X168407Y297587D02*
D03*
X177069Y300854D02*
D03*
X81668Y289300D02*
D03*
X257700Y294059D02*
D03*
Y307300D02*
D03*
X234300Y294059D02*
D03*
Y300983D02*
D03*
X234052Y307557D02*
D03*
X225300Y294059D02*
D03*
X225017Y300983D02*
D03*
Y307557D02*
D03*
Y256600D02*
D03*
X217973Y256799D02*
D03*
X212400Y248912D02*
D03*
Y254094D02*
D03*
Y259951D02*
D03*
Y265150D02*
D03*
X226617Y246392D02*
D03*
X232667Y225905D02*
D03*
X260100Y218800D02*
D03*
X253800D02*
D03*
X248413D02*
D03*
X243300D02*
D03*
X198271Y233583D02*
D03*
Y236335D02*
D03*
Y238701D02*
D03*
X195759Y241320D02*
D03*
X195900Y247255D02*
D03*
X185730Y303600D02*
D03*
X150061Y302597D02*
D03*
X181600Y303600D02*
D03*
X94284Y259894D02*
D03*
X74650Y271040D02*
D03*
X67800Y263400D02*
D03*
X65267Y274124D02*
D03*
X97100Y283000D02*
D03*
X94300Y268715D02*
D03*
X94284Y256357D02*
D03*
X70350Y263400D02*
D03*
X74650Y250441D02*
D03*
X86589Y246001D02*
D03*
X88758D02*
D03*
X70350Y286671D02*
D03*
X90428Y264876D02*
D03*
X53013Y263162D02*
D03*
X23068Y235200D02*
D03*
X17857D02*
D03*
X13339D02*
D03*
X17857Y240269D02*
D03*
X13401D02*
D03*
X28700Y250298D02*
D03*
X32065Y259837D02*
D03*
X30900Y264469D02*
D03*
X26649Y271540D02*
D03*
X30900Y268390D02*
D03*
X59313Y266550D02*
D03*
X53800Y256733D02*
D03*
X25650Y277958D02*
D03*
X8450Y244952D02*
D03*
X9600Y260169D02*
D03*
X31750Y280834D02*
D03*
X35500Y283800D02*
D03*
X31750Y286932D02*
D03*
X58000Y279489D02*
D03*
X50660Y281514D02*
D03*
X15800Y285308D02*
D03*
X46940Y292022D02*
D03*
X50963Y291880D02*
D03*
X56163Y292100D02*
D03*
X65700Y306300D02*
D03*
X22250Y305709D02*
D03*
X31750Y292100D02*
D03*
X233174Y268701D02*
D03*
X230025D02*
D03*
X219137Y227775D02*
D03*
Y232500D02*
D03*
Y237224D02*
D03*
Y241949D02*
D03*
X215200Y227775D02*
D03*
Y232500D02*
D03*
Y237224D02*
D03*
Y241949D02*
D03*
X211263Y227775D02*
D03*
Y232500D02*
D03*
Y237224D02*
D03*
Y241949D02*
D03*
X84621Y270683D02*
D03*
X82652Y272652D02*
D03*
X86589D02*
D03*
Y268715D02*
D03*
X82652D02*
D03*
X45454Y257711D02*
D03*
Y254168D02*
D03*
X41517D02*
D03*
Y257711D02*
D03*
X45454Y261254D02*
D03*
X41517D02*
D03*
D176*
X88758Y129100D02*
X185200D01*
X84033Y133824D02*
X88758Y129100D01*
X185200D02*
X188300Y132200D01*
Y295100D01*
X84033Y133824D02*
Y133900D01*
X177069Y300854D02*
X182546D01*
X188300Y295100D01*
X192900Y121400D02*
Y296430D01*
X185730Y303600D02*
X192900Y296430D01*
X78361Y133900D02*
Y158252D01*
X65136Y121602D02*
Y133900D01*
Y121602D02*
X71138Y115600D01*
X187100D01*
X54600Y143023D02*
X93482Y181905D01*
X50900Y82451D02*
Y147973D01*
X54600Y96209D02*
X76109Y74700D01*
X50900Y82451D02*
X58500Y74851D01*
X50900Y147973D02*
X88758Y185830D01*
X54600Y96209D02*
Y143023D01*
X187100Y115600D02*
X192900Y121400D01*
X78361Y158252D02*
X103100Y182991D01*
Y224000D01*
X115800Y236700D01*
Y280300D01*
X118500Y283000D01*
X153821D01*
X168407Y297587D01*
X93482Y181905D02*
Y207431D01*
X88758Y185830D02*
Y207500D01*
X94300Y268715D02*
X97762D01*
X107513Y258964D01*
X85214Y277800D02*
Y289300D01*
Y277800D02*
X94300Y268715D01*
X81668Y289300D02*
X85214D01*
D177*
X9252Y9252D02*
D03*
X305709D02*
D03*
X9252Y305709D02*
D03*
X305709D02*
D03*
D178*
X299433Y127026D02*
D03*
Y142774D02*
D03*
Y134900D02*
D03*
D179*
X271874Y170333D02*
D03*
X264000D02*
D03*
X256126D02*
D03*
D180*
X147442Y67628D02*
D03*
X127757D02*
D03*
X137600D02*
D03*
X127757Y10541D02*
D03*
X147442D02*
D03*
D181*
X119096Y38100D02*
D03*
X156104D02*
D03*
D182*
X174700Y156300D02*
D03*
Y151300D02*
D03*
X164700D02*
D03*
X169700D02*
D03*
X164700Y156300D02*
D03*
X169700D02*
D03*
X159700D02*
D03*
X154700D02*
D03*
X159700Y151300D02*
D03*
X154700D02*
D03*
D183*
X108000Y299740D02*
D03*
X98000D02*
D03*
D184*
X88000D02*
D03*
M02*
