G04*
G04 #@! TF.GenerationSoftware,Altium Limited,Altium Designer,21.6.1 (37)*
G04*
G04 Layer_Color=8421504*
%FSLAX25Y25*%
%MOIN*%
G70*
G04*
G04 #@! TF.SameCoordinates,A58106A6-3A56-46F9-B803-770B48F501EE*
G04*
G04*
G04 #@! TF.FilePolarity,Positive*
G04*
G01*
G75*
%ADD19R,0.05772X0.03362*%
%ADD20R,0.02756X0.02756*%
%ADD21R,0.02756X0.02756*%
%ADD22R,0.02756X0.02756*%
%ADD23R,0.02047X0.02205*%
%ADD24R,0.03800X0.13800*%
%ADD25R,0.25800X0.33300*%
%ADD26R,0.03937X0.03543*%
%ADD27R,0.02559X0.02559*%
%ADD28R,0.04724X0.04724*%
%ADD29C,0.05000*%
G04:AMPARAMS|DCode=30|XSize=9.84mil|YSize=19.68mil|CornerRadius=1.97mil|HoleSize=0mil|Usage=FLASHONLY|Rotation=180.000|XOffset=0mil|YOffset=0mil|HoleType=Round|Shape=RoundedRectangle|*
%AMROUNDEDRECTD30*
21,1,0.00984,0.01575,0,0,180.0*
21,1,0.00591,0.01968,0,0,180.0*
1,1,0.00394,-0.00295,0.00787*
1,1,0.00394,0.00295,0.00787*
1,1,0.00394,0.00295,-0.00787*
1,1,0.00394,-0.00295,-0.00787*
%
%ADD30ROUNDEDRECTD30*%
G04:AMPARAMS|DCode=31|XSize=59.06mil|YSize=17.72mil|CornerRadius=1.95mil|HoleSize=0mil|Usage=FLASHONLY|Rotation=0.000|XOffset=0mil|YOffset=0mil|HoleType=Round|Shape=RoundedRectangle|*
%AMROUNDEDRECTD31*
21,1,0.05906,0.01382,0,0,0.0*
21,1,0.05516,0.01772,0,0,0.0*
1,1,0.00390,0.02758,-0.00691*
1,1,0.00390,-0.02758,-0.00691*
1,1,0.00390,-0.02758,0.00691*
1,1,0.00390,0.02758,0.00691*
%
%ADD31ROUNDEDRECTD31*%
%ADD32R,0.06299X0.13780*%
%ADD33R,0.07480X0.04331*%
%ADD34R,0.02362X0.02835*%
%ADD35O,0.03150X0.00906*%
%ADD36O,0.00906X0.03150*%
%ADD37R,0.04528X0.04134*%
%ADD38R,0.04331X0.04331*%
%ADD39R,0.03543X0.03937*%
%ADD40R,0.02559X0.02559*%
%ADD41R,0.03150X0.03937*%
%ADD42R,0.03937X0.03150*%
%ADD43R,0.03740X0.03740*%
%ADD44R,0.02165X0.02165*%
%ADD45R,0.04134X0.04528*%
%ADD46R,0.03961X0.03773*%
%ADD47R,0.05512X0.04134*%
%ADD48R,0.04134X0.05512*%
%ADD49R,0.03773X0.03961*%
%ADD50R,0.13780X0.03937*%
%ADD51R,0.13386X0.05906*%
%ADD52R,0.07480X0.06299*%
%ADD53R,0.11221X0.13780*%
%ADD54R,0.03937X0.13780*%
%ADD55R,0.05906X0.13386*%
%ADD56R,0.13386X0.05906*%
%ADD57R,0.03937X0.05512*%
%ADD58R,0.03150X0.03150*%
%ADD59R,0.04724X0.04724*%
%ADD60R,0.03985X0.04952*%
%ADD61R,0.04952X0.03985*%
%ADD62R,0.06024X0.04764*%
%ADD63R,0.03937X0.04331*%
%ADD64R,0.05709X0.04528*%
%ADD65R,0.04528X0.05709*%
%ADD66R,0.07874X0.10630*%
%ADD67R,0.09173X0.07835*%
%ADD68R,0.02953X0.03150*%
%ADD69R,0.03150X0.02953*%
%ADD70R,0.04134X0.02559*%
%ADD71R,0.02559X0.04134*%
%ADD72R,0.04724X0.07480*%
%ADD73R,0.06299X0.07480*%
%ADD74R,0.08268X0.07874*%
%ADD75R,0.01575X0.05315*%
%ADD76R,0.02756X0.02362*%
%ADD77R,0.02756X0.03937*%
%ADD78R,0.07874X0.07874*%
%ADD79R,0.04724X0.02756*%
%ADD80R,0.02756X0.04724*%
%ADD81R,0.01575X0.00984*%
%ADD82R,0.06299X0.09843*%
%ADD83R,0.07480X0.05315*%
%ADD84R,0.04724X0.03937*%
%ADD85R,0.06102X0.05315*%
%ADD86R,0.03347X0.04331*%
%ADD87R,0.02953X0.04331*%
%ADD88R,0.04606X0.07087*%
G36*
X210357Y230512D02*
Y239212D01*
Y239252D01*
X210387Y239324D01*
X210443Y239379D01*
X210515Y239409D01*
X210554D01*
D01*
X219846D01*
X219885D01*
X219957Y239379D01*
X220012Y239324D01*
X220042Y239252D01*
Y239212D01*
D01*
Y230512D01*
Y230473D01*
X220012Y230400D01*
X219957Y230345D01*
X219885Y230315D01*
X219846D01*
D01*
X210554D01*
X210515D01*
X210443Y230345D01*
X210387Y230400D01*
X210357Y230473D01*
Y230512D01*
D01*
D02*
G37*
D19*
X231600Y268701D02*
D03*
D20*
X82849Y272455D02*
D03*
X82849Y268912D02*
D03*
D21*
X86393Y272455D02*
D03*
D22*
Y268912D02*
D03*
D23*
X182823Y235326D02*
D03*
Y238869D02*
D03*
D24*
X272600Y232650D02*
D03*
X279300D02*
D03*
X286000D02*
D03*
X292700D02*
D03*
X299400D02*
D03*
D25*
X286000Y279100D02*
D03*
D26*
X266200Y79682D02*
D03*
Y85981D02*
D03*
X264000Y183650D02*
D03*
Y189950D02*
D03*
X138850Y294059D02*
D03*
Y300358D02*
D03*
X276300Y25824D02*
D03*
Y32124D02*
D03*
X269700Y25951D02*
D03*
Y32250D02*
D03*
X192800Y10250D02*
D03*
Y16550D02*
D03*
X192800Y28974D02*
D03*
Y22675D02*
D03*
X74721Y124192D02*
D03*
X67635D02*
D03*
X47000Y51749D02*
D03*
Y45450D02*
D03*
X74651Y260860D02*
D03*
Y254561D02*
D03*
X102931Y267475D02*
D03*
Y261176D02*
D03*
X109100Y269502D02*
D03*
Y275802D02*
D03*
X141100Y285018D02*
D03*
Y278719D02*
D03*
X84033Y137250D02*
D03*
Y143550D02*
D03*
X65136Y137350D02*
D03*
Y143650D02*
D03*
X78361Y137250D02*
D03*
Y143550D02*
D03*
X59313Y262987D02*
D03*
Y256688D02*
D03*
X69833Y267641D02*
D03*
Y273940D02*
D03*
X120000Y116149D02*
D03*
Y109850D02*
D03*
X200300Y296150D02*
D03*
Y289850D02*
D03*
X135800Y201971D02*
D03*
Y195672D02*
D03*
X135800Y183449D02*
D03*
Y189748D02*
D03*
X156300Y109550D02*
D03*
Y115849D02*
D03*
X26649Y267635D02*
D03*
Y261336D02*
D03*
X34515Y274690D02*
D03*
Y268391D02*
D03*
X32065Y250132D02*
D03*
Y256432D02*
D03*
X46900Y274690D02*
D03*
Y268391D02*
D03*
X40400Y274690D02*
D03*
Y268391D02*
D03*
D27*
X258526Y84268D02*
D03*
Y80331D02*
D03*
X256126Y185432D02*
D03*
Y189368D02*
D03*
X53900Y46431D02*
D03*
Y50368D02*
D03*
X234800Y236432D02*
D03*
Y240369D02*
D03*
X75200Y46031D02*
D03*
Y49968D02*
D03*
D28*
X47619Y246100D02*
D03*
X39351D02*
D03*
X90714Y135847D02*
D03*
X98982D02*
D03*
X124977Y141700D02*
D03*
X133245D02*
D03*
X85733Y227600D02*
D03*
X94001D02*
D03*
X68175Y227600D02*
D03*
X76443D02*
D03*
D29*
X306600Y216000D02*
D03*
X117140Y217534D02*
D03*
X50552Y20200D02*
D03*
X81531Y45809D02*
D03*
X112380Y87300D02*
D03*
X162800D02*
D03*
X41514Y64831D02*
D03*
X275300Y189269D02*
D03*
X274327Y80416D02*
D03*
X279300Y220700D02*
D03*
X102931Y80047D02*
D03*
X173000Y80047D02*
D03*
X137600Y85953D02*
D03*
X119200Y299709D02*
D03*
X220613Y250538D02*
D03*
X248952Y302128D02*
D03*
X63498Y74851D02*
D03*
X71400Y74700D02*
D03*
X212900Y271618D02*
D03*
X182323Y225905D02*
D03*
X174700Y165600D02*
D03*
X164841Y172687D02*
D03*
X154700Y171200D02*
D03*
X32065Y134092D02*
D03*
X51260Y133900D02*
D03*
X138850Y308026D02*
D03*
X211263Y307557D02*
D03*
X203700D02*
D03*
X132200Y307800D02*
D03*
X141100Y270505D02*
D03*
X200300Y281948D02*
D03*
X80841Y239826D02*
D03*
X59313Y250930D02*
D03*
X290700Y15100D02*
D03*
X53013Y268390D02*
D03*
X30900Y241100D02*
D03*
D30*
X228647Y272442D02*
D03*
X230615D02*
D03*
X232584D02*
D03*
X234552D02*
D03*
Y264961D02*
D03*
X232584D02*
D03*
X230615D02*
D03*
X228647D02*
D03*
D31*
X226617Y243819D02*
D03*
Y241260D02*
D03*
Y238701D02*
D03*
Y236142D02*
D03*
Y233583D02*
D03*
Y231024D02*
D03*
Y228464D02*
D03*
Y225905D02*
D03*
X203783D02*
D03*
Y228464D02*
D03*
Y231024D02*
D03*
Y233583D02*
D03*
Y236142D02*
D03*
Y238701D02*
D03*
Y241260D02*
D03*
Y243819D02*
D03*
D32*
X23200Y47343D02*
D03*
Y27658D02*
D03*
D33*
X144600Y198121D02*
D03*
Y188279D02*
D03*
D34*
X66056Y38172D02*
D03*
Y41991D02*
D03*
Y45810D02*
D03*
Y49628D02*
D03*
X60544Y38172D02*
D03*
Y41991D02*
D03*
Y45810D02*
D03*
Y49628D02*
D03*
D35*
X78814Y267730D02*
D03*
Y269699D02*
D03*
Y271668D02*
D03*
Y273636D02*
D03*
X90428D02*
D03*
Y271668D02*
D03*
Y269699D02*
D03*
Y267730D02*
D03*
D36*
X81668Y276490D02*
D03*
X83637D02*
D03*
X85605D02*
D03*
X87574D02*
D03*
Y264876D02*
D03*
X85605D02*
D03*
X83637D02*
D03*
X81668D02*
D03*
D37*
X286052Y216900D02*
D03*
X292548D02*
D03*
X196436Y178648D02*
D03*
X189940D02*
D03*
X171337Y204570D02*
D03*
X164841D02*
D03*
D38*
X99957Y123753D02*
D03*
X107043D02*
D03*
X201075Y220500D02*
D03*
X193988D02*
D03*
D39*
X113925Y123753D02*
D03*
X120224D02*
D03*
X153349Y92632D02*
D03*
X147050D02*
D03*
X121301Y92732D02*
D03*
X127600D02*
D03*
X180788Y203020D02*
D03*
Y195934D02*
D03*
X155304Y185552D02*
D03*
Y192639D02*
D03*
X76649Y283000D02*
D03*
X70350D02*
D03*
X142701Y123653D02*
D03*
X136401D02*
D03*
X155357Y123653D02*
D03*
X149058D02*
D03*
X109950Y135547D02*
D03*
X116250D02*
D03*
X74542Y246001D02*
D03*
X80841D02*
D03*
X26728Y254561D02*
D03*
X20428D02*
D03*
X40050Y239000D02*
D03*
X46350D02*
D03*
X59313Y274402D02*
D03*
X53013D02*
D03*
X13401Y260394D02*
D03*
X19700D02*
D03*
X19850Y285308D02*
D03*
X26150D02*
D03*
D40*
X193901Y225712D02*
D03*
X189964D02*
D03*
D41*
X109427Y80200D02*
D03*
X115333D02*
D03*
X165753Y80200D02*
D03*
X159847D02*
D03*
D42*
X147200Y80047D02*
D03*
Y85953D02*
D03*
X127700Y80047D02*
D03*
Y85953D02*
D03*
D43*
X85762Y74700D02*
D03*
X79856D02*
D03*
X54753Y74800D02*
D03*
X48847D02*
D03*
D44*
X247181Y278645D02*
D03*
X250724D02*
D03*
D45*
X87500Y116548D02*
D03*
Y110052D02*
D03*
D46*
X93197Y143550D02*
D03*
X98717D02*
D03*
X112644Y141700D02*
D03*
X118165D02*
D03*
D47*
X248952Y292942D02*
D03*
Y285462D02*
D03*
D48*
X117140Y247000D02*
D03*
X109660D02*
D03*
X232990Y250538D02*
D03*
X240470D02*
D03*
D49*
X85318Y221960D02*
D03*
Y216440D02*
D03*
X76727Y222060D02*
D03*
Y216540D02*
D03*
D50*
X281981Y53974D02*
D03*
Y46100D02*
D03*
Y38226D02*
D03*
X33100Y91026D02*
D03*
Y98900D02*
D03*
Y106774D02*
D03*
Y114648D02*
D03*
D51*
X304619Y28974D02*
D03*
Y63226D02*
D03*
D52*
X239723Y286342D02*
D03*
X223581D02*
D03*
D53*
X136317Y240030D02*
D03*
X172144D02*
D03*
D54*
X209526Y32050D02*
D03*
X217400D02*
D03*
X225274D02*
D03*
X233148D02*
D03*
D55*
X200274Y10200D02*
D03*
X242400D02*
D03*
D56*
X11250Y81774D02*
D03*
Y123900D02*
D03*
D57*
X19850Y277958D02*
D03*
Y267722D02*
D03*
D58*
X104500Y135847D02*
D03*
Y141753D02*
D03*
D59*
X102931Y246796D02*
D03*
Y255064D02*
D03*
X110675Y254685D02*
D03*
Y262953D02*
D03*
D60*
X51260Y31940D02*
D03*
Y38060D02*
D03*
D61*
X47540Y58500D02*
D03*
X53660D02*
D03*
D62*
X243510Y271618D02*
D03*
Y264603D02*
D03*
X220614Y271618D02*
D03*
Y264603D02*
D03*
X189500Y233154D02*
D03*
Y240170D02*
D03*
D63*
X240300Y234416D02*
D03*
Y241109D02*
D03*
X102900Y62754D02*
D03*
Y69446D02*
D03*
X173000Y63254D02*
D03*
Y69946D02*
D03*
D64*
X87573Y257517D02*
D03*
Y250430D02*
D03*
D65*
X92301Y283000D02*
D03*
X85214D02*
D03*
X141793Y153528D02*
D03*
X134706D02*
D03*
X51209Y141964D02*
D03*
X58296D02*
D03*
X20425Y246501D02*
D03*
X13339D02*
D03*
D66*
X272976Y203600D02*
D03*
X295024D02*
D03*
D67*
X253800Y249412D02*
D03*
Y225712D02*
D03*
D68*
X180788Y181995D02*
D03*
Y187901D02*
D03*
D69*
X152351Y200119D02*
D03*
X158256D02*
D03*
X87054Y124192D02*
D03*
X81149D02*
D03*
D70*
X113970Y117034D02*
D03*
X97631D02*
D03*
Y108570D02*
D03*
X113970D02*
D03*
X64616Y117454D02*
D03*
X80955D02*
D03*
Y108990D02*
D03*
X64616D02*
D03*
X149969Y108668D02*
D03*
X133631D02*
D03*
Y117132D02*
D03*
X149969D02*
D03*
D71*
X196989Y186200D02*
D03*
Y202539D02*
D03*
X188524D02*
D03*
Y186200D02*
D03*
X172536Y182301D02*
D03*
Y198639D02*
D03*
X164071D02*
D03*
Y182301D02*
D03*
D72*
X47305Y307740D02*
D03*
X40612D02*
D03*
D73*
X60100D02*
D03*
X27817D02*
D03*
D74*
X56163Y298488D02*
D03*
X31754D02*
D03*
D75*
X49076Y297209D02*
D03*
X46517D02*
D03*
X43958D02*
D03*
X41399D02*
D03*
X38840D02*
D03*
D76*
X39451Y280653D02*
D03*
Y288133D02*
D03*
X47325D02*
D03*
D77*
Y281440D02*
D03*
D78*
X48108Y181278D02*
D03*
X56841D02*
D03*
X48108Y172687D02*
D03*
X56841D02*
D03*
X96360Y180467D02*
D03*
X107600D02*
D03*
X96360Y168955D02*
D03*
X107600D02*
D03*
D79*
X127502Y158252D02*
D03*
Y200772D02*
D03*
Y196047D02*
D03*
Y191323D02*
D03*
Y186598D02*
D03*
Y181874D02*
D03*
Y177150D02*
D03*
Y172425D02*
D03*
Y167701D02*
D03*
Y162976D02*
D03*
Y153528D02*
D03*
D80*
X32065Y203543D02*
D03*
X36789D02*
D03*
X41514D02*
D03*
X46238D02*
D03*
X50963D02*
D03*
X55687D02*
D03*
X60411D02*
D03*
X65136D02*
D03*
X69860D02*
D03*
X74585D02*
D03*
X79309D02*
D03*
X84033D02*
D03*
X88758D02*
D03*
X93482D02*
D03*
X98207D02*
D03*
X102931D02*
D03*
X107656D02*
D03*
X112380D02*
D03*
X117104D02*
D03*
X121829D02*
D03*
Y150787D02*
D03*
X117104D02*
D03*
X112380D02*
D03*
X107656D02*
D03*
X102931D02*
D03*
X98207D02*
D03*
X93482D02*
D03*
X88758D02*
D03*
X84033D02*
D03*
X79309D02*
D03*
X74585D02*
D03*
X69860D02*
D03*
X65136D02*
D03*
X60411D02*
D03*
X55687D02*
D03*
X50963D02*
D03*
X46238D02*
D03*
X41514D02*
D03*
X36789D02*
D03*
X32065D02*
D03*
D81*
X38170Y262140D02*
D03*
Y260369D02*
D03*
Y258597D02*
D03*
Y256825D02*
D03*
Y255054D02*
D03*
Y253282D02*
D03*
X48800D02*
D03*
Y255054D02*
D03*
Y256825D02*
D03*
Y258597D02*
D03*
Y260369D02*
D03*
Y262140D02*
D03*
D82*
X43485Y257711D02*
D03*
D83*
X186656Y265431D02*
D03*
X163152D02*
D03*
D84*
X149372Y283837D02*
D03*
Y269270D02*
D03*
D85*
X150061Y307557D02*
D03*
D86*
X159746Y308049D02*
D03*
X164077D02*
D03*
X168407D02*
D03*
X172738D02*
D03*
X177069D02*
D03*
X181400D02*
D03*
X185730D02*
D03*
D87*
X189864D02*
D03*
D88*
X194628Y306671D02*
D03*
M02*
