M48
;Layer_Color=9474304
;FILE_FORMAT=2:5
INCH,LZ
;TYPE=PLATED
T1F00S00C0.00800
T2F00S00C0.02560
T3F00S00C0.03543
T4F00S00C0.04724
T5F00S00C0.05000
T6F00S00C0.07087
T7F00S00C0.10630
%
T01
X0002362Y0023099
Y0032943
Y0042786
Y005263
Y0062474
X00232Y00565
X00427Y00585
X005366Y0062754
X00564Y00421
X005126Y00274
X00752Y00528
X01029Y00576
X01628Y00517
X0173Y00587
X01628Y0029
X01876Y00102
X02095Y00423
X02174
X02331
X02734Y00382
X02729Y0054
X02763Y00218
X0284Y00148
X02524Y0084268
X02624Y02036
X02601Y02188
X02538
X0248413
X0272976Y02205
X03066Y02036
X02433Y02188
X02328Y02135
X02077Y02205
X02057Y0203258
X0201321Y0186
X0201025Y0178648
X0180788
X0175469Y0198639
Y020457
X0152334Y0203258
X01358Y02054
X0121829Y0207418
X0117104
X01131Y0217535
X012788Y02162
X0098207Y0207431
X0093482
X0088758Y02075
X01131Y0180467
X01392Y01835
X0135424Y0172687
X0133245Y0158252
X0134706Y0148429
X01419Y0148429
X0137454Y01417
X0153349Y013725
X0158256Y0123753
X0159847Y010985
X0149969Y0105645
X0173Y01017
Y0084268
X0184202Y0092731
X01213Y00873
X01029Y0085953
X0090262Y00747
X0089831Y0124192
X00906Y01321
X0107656Y0146727
X0121829Y01549
X0119186Y0135547
X01235Y0123753
Y0110052
X0113925Y01056
X0161041Y0172687
X0063498
X006986Y0146727
X0074542
X0078361Y01339
X0084033
X0065136
X0058104
X0047413Y0141964
X0027932Y0141732
X0027894Y0151575
X0032174Y01549
X0027857Y0161417
X0027819Y017126
X0027782Y0181102
X0027744Y0190945
X0027707Y0200787
X0027669Y021063
X0032065Y0207418
X0027632Y0220472
X0065136Y02075
X0069833
X0074542Y0207637
X0080955Y0106474
X00875
X0076109Y00747
X00585Y0074851
X0044347
X00431Y01068
X00331Y0121602
X0025591Y0131379
X0015748
X0005906
X0002362
Y0121535
Y0111692
Y0101848
Y0092005
Y0082161
Y0072317
X0003937Y0222835
X0002362Y0226378
Y0236221
Y0246063
X000845Y0244952
X0013401Y0240269
X0017857
Y02352
X0013339
X0023068
X0023622Y0222835
X001378
X00096Y0260169
X0002362Y0255906
Y0265748
Y027559
Y0285433
Y0295276
X00158Y0285308
X002565Y0277958
X0026649Y027154
X00309Y026839
X00309Y0264469
X0032065Y0259837
X0041517Y0261254
Y0257711
Y0254168
X0045454
Y0257711
Y0261254
X0053013Y0263162
X00538Y0256733
X0053845Y0252448
X0059313Y026655
X00678Y02634
X007035
X007465Y027104
X0082652Y0272652
X0086589
X0084621Y0270683
X0086589Y0268715
X0082652
X0081668Y02893
X007035Y0286671
X0065267Y0274124
X0058Y0279489
X005066Y0281514
X0050963Y029188
X004694Y0292022
X0056163Y02921
X00657Y03063
X002225Y0305709
X003175Y02921
Y0286932
Y0280834
X00355Y02838
X00287Y0250298
X007465Y0250441
X0086589Y0246001
X0064368Y02276
X0097788Y0227591
X0123122Y0227179
X012788Y0223807
X01322Y0227179
X0147442
X0123122Y0236336
X01212Y0247
X0107513Y0258964
X0094284Y0259894
Y0256357
X00943Y0268715
Y0273668
X00971Y0283
X0090428Y0264876
X0088758Y0246001
X01544Y02691
X01557Y02921
X0150061Y02921
Y0302597
X0164077Y0303402
X0168407Y0297587
X01724Y0290351
X0176751Y0285769
X0167164
X0177069Y0300854
X01816Y03036
X018573
X019Y0304154
X01959Y029615
X02253Y0294059
X0225017Y0300983
Y0307557
X0234052
X02343Y0300983
Y0294059
X0233174Y0268701
X0230025
X0225017Y02566
X0217973Y0256799
X02124Y0254094
Y0248912
X0211263Y0241949
X02152
X0219137
Y0237224
X02152
X0211263
Y02325
X02152
X0219137
Y0227775
X02152
X0211263
X0198271Y0233583
Y0236335
Y0238701
X0195759Y024132
X01959Y0247255
X02124Y0259951
Y026515
X0226617Y0246392
X0232667Y0225905
X0286Y0223198
X0292748Y0242339
X02577Y0294059
Y03073
T02
X01547Y01513
Y01563
X01597
X01647
Y01513
X01697
X01747
Y01563
X01697
X01597Y01513
T03
X0256126Y0170333
X0264
X0271874
X0299433Y0142774
Y01349
Y0127026
T04
X0127757Y0010541
X0147442
Y0067628
X01376
X0127757
T05
X0088Y029974
X0098
X0108
T06
X0119096Y00381
X0156104
T07
X0009252Y0009252
X0305709
X0009252Y0305709
X0305709
M30
