G04*
G04 #@! TF.GenerationSoftware,Altium Limited,Altium Designer,21.6.1 (37)*
G04*
G04 Layer_Physical_Order=3*
G04 Layer_Color=16440176*
%FSLAX25Y25*%
%MOIN*%
G70*
G04*
G04 #@! TF.SameCoordinates,95DD4E70-6A61-474B-92DE-76CD3143066D*
G04*
G04*
G04 #@! TF.FilePolarity,Positive*
G04*
G01*
G75*
%ADD168C,0.02000*%
%ADD182C,0.03960*%
%ADD183C,0.07087*%
G36*
X113400Y309300D02*
Y287032D01*
X113300Y286932D01*
X98000D01*
Y284809D01*
X97584Y284531D01*
X97418Y284600D01*
X96782D01*
X96194Y284356D01*
X95744Y283906D01*
X95500Y283318D01*
Y282682D01*
X95744Y282094D01*
X96194Y281644D01*
X96782Y281400D01*
X97418D01*
X97584Y281469D01*
X98000Y281191D01*
Y256377D01*
Y254168D01*
X82652D01*
Y267115D01*
X82971D01*
X83559Y267358D01*
X84009Y267809D01*
X84252Y268397D01*
Y268621D01*
X84298Y269038D01*
X84621Y269073D01*
X84944Y269038D01*
X84989Y268621D01*
Y268397D01*
X85233Y267809D01*
X85683Y267358D01*
X86271Y267115D01*
X86908D01*
X87496Y267358D01*
X87946Y267809D01*
X88189Y268397D01*
Y269033D01*
X87946Y269621D01*
X87496Y270071D01*
X86908Y270315D01*
X86683D01*
X86266Y270360D01*
X86231Y270683D01*
X86266Y271006D01*
X86683Y271052D01*
X86908D01*
X87496Y271295D01*
X87946Y271746D01*
X88189Y272334D01*
Y272970D01*
X87946Y273558D01*
X87496Y274008D01*
X86908Y274252D01*
X86271D01*
X85683Y274008D01*
X85233Y273558D01*
X84989Y272970D01*
Y272745D01*
X84984Y272692D01*
X84621Y272493D01*
X84258Y272692D01*
X84252Y272745D01*
Y272970D01*
X84009Y273558D01*
X83559Y274008D01*
X82971Y274252D01*
X82652D01*
Y288021D01*
X83025Y288394D01*
X83268Y288982D01*
Y289618D01*
X83025Y290206D01*
X82652Y290579D01*
Y309003D01*
X83050Y309400D01*
X113400Y309300D01*
D02*
G37*
G36*
X41387Y273824D02*
X12900D01*
Y296700D01*
X41387D01*
Y273824D01*
D02*
G37*
G36*
X78100Y276740D02*
X73765Y272405D01*
X73744Y272397D01*
X73294Y271947D01*
X73285Y271925D01*
X72400Y271040D01*
X72240Y271200D01*
X61600D01*
Y232807D01*
X61100Y232600D01*
X61000Y232700D01*
X8400D01*
Y243352D01*
X8769D01*
X9357Y243596D01*
X9807Y244046D01*
X10050Y244634D01*
Y245271D01*
X9807Y245859D01*
X9357Y246309D01*
X8769Y246552D01*
X8400D01*
Y258453D01*
X8900Y258727D01*
X9282Y258569D01*
X9918D01*
X10506Y258812D01*
X10956Y259262D01*
X11200Y259850D01*
Y260487D01*
X10956Y261075D01*
X10506Y261525D01*
X9918Y261769D01*
X9282D01*
X8900Y261610D01*
X8400Y261885D01*
Y271134D01*
X8755Y271486D01*
X25049Y271325D01*
Y271222D01*
X25293Y270634D01*
X25743Y270184D01*
X26331Y269940D01*
X26968D01*
X27556Y270184D01*
X28006Y270634D01*
X28249Y271222D01*
X28321Y271292D01*
X53800Y271040D01*
X54700Y273552D01*
Y277500D01*
X78100D01*
Y276740D01*
D02*
G37*
G36*
X156200Y265735D02*
Y217300D01*
X115100D01*
X115100Y265603D01*
X115454Y265955D01*
X156200Y265735D01*
D02*
G37*
G36*
X268400Y310100D02*
Y285600D01*
X268276Y285300D01*
X214300D01*
X207900Y278900D01*
Y222100D01*
X207382D01*
X206794Y221856D01*
X206344Y221406D01*
X206100Y220818D01*
Y220182D01*
X206344Y219594D01*
X206794Y219144D01*
X207382Y218900D01*
X207900D01*
Y102800D01*
X174163D01*
X173906Y103056D01*
X173318Y103300D01*
X172682D01*
X172094Y103056D01*
X171837Y102800D01*
X167690D01*
X166500Y101611D01*
Y101318D01*
X166341Y101159D01*
X166341Y101159D01*
X166150Y100700D01*
X166152Y100697D01*
X166341Y100241D01*
X166500Y100082D01*
Y5000D01*
X16186D01*
X15950Y5441D01*
X16064Y5611D01*
X16643Y7010D01*
X16939Y8495D01*
Y10009D01*
X16643Y11494D01*
X16064Y12893D01*
X15223Y14152D01*
X14152Y15223D01*
X12893Y16064D01*
X11494Y16643D01*
X10009Y16939D01*
X8495D01*
X7010Y16643D01*
X6816Y16563D01*
X6400Y16840D01*
Y127000D01*
X23600D01*
X29606Y133006D01*
Y210200D01*
X147100D01*
Y216651D01*
X156200D01*
X156659Y216841D01*
X156849Y217300D01*
Y265735D01*
X156755Y265963D01*
X156662Y266191D01*
X156660Y266192D01*
X156659Y266194D01*
X156431Y266289D01*
X156203Y266384D01*
X147100Y266434D01*
Y310284D01*
X147454Y310637D01*
X268400Y310100D01*
D02*
G37*
G36*
X310600Y276545D02*
Y15759D01*
X310159Y15523D01*
X309350Y16064D01*
X307951Y16643D01*
X306466Y16939D01*
X304952D01*
X303467Y16643D01*
X302068Y16064D01*
X300809Y15223D01*
X299738Y14152D01*
X298897Y12893D01*
X298317Y11494D01*
X298022Y10009D01*
Y8495D01*
X298220Y7500D01*
X297810Y7000D01*
X167200D01*
Y100300D01*
X166800Y100700D01*
X168000Y101900D01*
X171400D01*
Y101382D01*
X171644Y100794D01*
X172094Y100344D01*
X172682Y100100D01*
X173318D01*
X173906Y100344D01*
X174356Y100794D01*
X174600Y101382D01*
Y101900D01*
X208700D01*
Y219237D01*
X209056Y219594D01*
X209300Y220182D01*
Y220818D01*
X209056Y221406D01*
X208700Y221763D01*
Y276000D01*
X310245Y276897D01*
X310600Y276545D01*
D02*
G37*
%LPC*%
G36*
X108572Y304083D02*
X108500D01*
Y300240D01*
X112343D01*
Y300312D01*
X112047Y301417D01*
X111476Y302407D01*
X110667Y303216D01*
X109676Y303787D01*
X108572Y304083D01*
D02*
G37*
G36*
X107500D02*
X107428D01*
X106324Y303787D01*
X105333Y303216D01*
X104525Y302407D01*
X103953Y301417D01*
X103657Y300312D01*
Y300240D01*
X107500D01*
Y304083D01*
D02*
G37*
G36*
X98545Y303884D02*
X97455D01*
X96401Y303601D01*
X95456Y303056D01*
X94684Y302284D01*
X94139Y301339D01*
X93857Y300286D01*
Y299195D01*
X94139Y298141D01*
X94684Y297196D01*
X95456Y296425D01*
X96401Y295879D01*
X97455Y295597D01*
X98545D01*
X99599Y295879D01*
X100544Y296425D01*
X101315Y297196D01*
X101861Y298141D01*
X102143Y299195D01*
Y300286D01*
X101861Y301339D01*
X101315Y302284D01*
X100544Y303056D01*
X99599Y303601D01*
X98545Y303884D01*
D02*
G37*
G36*
X92143D02*
X83857D01*
Y295597D01*
X92143D01*
Y303884D01*
D02*
G37*
G36*
X112343Y299240D02*
X108500D01*
Y295397D01*
X108572D01*
X109676Y295693D01*
X110667Y296265D01*
X111476Y297073D01*
X112047Y298064D01*
X112343Y299168D01*
Y299240D01*
D02*
G37*
G36*
X107500D02*
X103657D01*
Y299168D01*
X103953Y298064D01*
X104525Y297073D01*
X105333Y296265D01*
X106324Y295693D01*
X107428Y295397D01*
X107500D01*
Y299240D01*
D02*
G37*
G36*
X94618Y275268D02*
X93982D01*
X93394Y275024D01*
X92944Y274574D01*
X92700Y273986D01*
Y273349D01*
X92944Y272761D01*
X93394Y272311D01*
X93982Y272067D01*
X94618D01*
X95206Y272311D01*
X95656Y272761D01*
X95900Y273349D01*
Y273986D01*
X95656Y274574D01*
X95206Y275024D01*
X94618Y275268D01*
D02*
G37*
G36*
Y270315D02*
X93982D01*
X93394Y270071D01*
X92944Y269621D01*
X92700Y269033D01*
Y268397D01*
X92944Y267809D01*
X93394Y267358D01*
X93982Y267115D01*
X94618D01*
X95206Y267358D01*
X95656Y267809D01*
X95900Y268397D01*
Y269033D01*
X95656Y269621D01*
X95206Y270071D01*
X94618Y270315D01*
D02*
G37*
G36*
X90746Y266476D02*
X90110D01*
X89522Y266233D01*
X89072Y265783D01*
X88828Y265195D01*
Y264558D01*
X89072Y263970D01*
X89522Y263520D01*
X90110Y263276D01*
X90746D01*
X91334Y263520D01*
X91784Y263970D01*
X92028Y264558D01*
Y265195D01*
X91784Y265783D01*
X91334Y266233D01*
X90746Y266476D01*
D02*
G37*
G36*
X32068Y293700D02*
X31431D01*
X30843Y293456D01*
X30393Y293006D01*
X30150Y292418D01*
Y291782D01*
X30393Y291194D01*
X30843Y290743D01*
X31431Y290500D01*
X32068D01*
X32656Y290743D01*
X33106Y291194D01*
X33350Y291782D01*
Y292418D01*
X33106Y293006D01*
X32656Y293456D01*
X32068Y293700D01*
D02*
G37*
G36*
X16118Y286908D02*
X15482D01*
X14894Y286665D01*
X14444Y286215D01*
X14200Y285627D01*
Y284990D01*
X14444Y284402D01*
X14894Y283952D01*
X15482Y283708D01*
X16118D01*
X16706Y283952D01*
X17156Y284402D01*
X17400Y284990D01*
Y285627D01*
X17156Y286215D01*
X16706Y286665D01*
X16118Y286908D01*
D02*
G37*
G36*
X31218Y269990D02*
X30582D01*
X29994Y269747D01*
X29544Y269297D01*
X29300Y268709D01*
Y268072D01*
X29544Y267484D01*
X29994Y267034D01*
X30582Y266791D01*
X31218D01*
X31806Y267034D01*
X32256Y267484D01*
X32500Y268072D01*
Y268709D01*
X32256Y269297D01*
X31806Y269747D01*
X31218Y269990D01*
D02*
G37*
G36*
X59631Y268150D02*
X58994D01*
X58406Y267907D01*
X57956Y267457D01*
X57713Y266869D01*
Y266232D01*
X57956Y265644D01*
X58406Y265194D01*
X58994Y264950D01*
X59631D01*
X60219Y265194D01*
X60669Y265644D01*
X60913Y266232D01*
Y266869D01*
X60669Y267457D01*
X60219Y267907D01*
X59631Y268150D01*
D02*
G37*
G36*
X31218Y266069D02*
X30582D01*
X29994Y265825D01*
X29544Y265375D01*
X29300Y264787D01*
Y264150D01*
X29544Y263562D01*
X29994Y263112D01*
X30582Y262869D01*
X31218D01*
X31806Y263112D01*
X32256Y263562D01*
X32500Y264150D01*
Y264787D01*
X32256Y265375D01*
X31806Y265825D01*
X31218Y266069D01*
D02*
G37*
G36*
X53332Y264762D02*
X52695D01*
X52107Y264519D01*
X51657Y264069D01*
X51413Y263480D01*
Y262844D01*
X51657Y262256D01*
X52107Y261806D01*
X52695Y261562D01*
X53332D01*
X53920Y261806D01*
X54370Y262256D01*
X54613Y262844D01*
Y263480D01*
X54370Y264069D01*
X53920Y264519D01*
X53332Y264762D01*
D02*
G37*
G36*
X32383Y261437D02*
X31747D01*
X31159Y261194D01*
X30709Y260744D01*
X30465Y260156D01*
Y259519D01*
X30709Y258931D01*
X31159Y258481D01*
X31747Y258237D01*
X32383D01*
X32971Y258481D01*
X33421Y258931D01*
X33665Y259519D01*
Y260156D01*
X33421Y260744D01*
X32971Y261194D01*
X32383Y261437D01*
D02*
G37*
G36*
X54118Y258333D02*
X53482D01*
X52894Y258089D01*
X52444Y257639D01*
X52200Y257051D01*
Y256415D01*
X52444Y255827D01*
X52894Y255377D01*
X53482Y255133D01*
X54118D01*
X54706Y255377D01*
X55156Y255827D01*
X55400Y256415D01*
Y257051D01*
X55156Y257639D01*
X54706Y258089D01*
X54118Y258333D01*
D02*
G37*
G36*
X45772Y262854D02*
X45135D01*
X44547Y262611D01*
X44097Y262161D01*
X43854Y261573D01*
Y260936D01*
X44097Y260348D01*
X44547Y259898D01*
X44897Y259753D01*
Y259212D01*
X44547Y259067D01*
X44097Y258617D01*
X43854Y258029D01*
Y257393D01*
X44097Y256805D01*
X44547Y256354D01*
X44896Y256210D01*
Y255669D01*
X44547Y255524D01*
X44097Y255074D01*
X43854Y254486D01*
Y253850D01*
X44097Y253261D01*
X44547Y252811D01*
X45135Y252568D01*
X45772D01*
X46360Y252811D01*
X46810Y253261D01*
X47054Y253850D01*
Y254486D01*
X46810Y255074D01*
X46360Y255524D01*
X46011Y255669D01*
Y256210D01*
X46360Y256354D01*
X46810Y256805D01*
X47054Y257393D01*
Y258029D01*
X46810Y258617D01*
X46360Y259067D01*
X46011Y259212D01*
Y259753D01*
X46360Y259898D01*
X46810Y260348D01*
X47054Y260936D01*
Y261573D01*
X46810Y262161D01*
X46360Y262611D01*
X45772Y262854D01*
D02*
G37*
G36*
X41835D02*
X41198D01*
X40610Y262611D01*
X40160Y262161D01*
X39917Y261573D01*
Y260936D01*
X40160Y260348D01*
X40610Y259898D01*
X40960Y259753D01*
Y259212D01*
X40610Y259067D01*
X40160Y258617D01*
X39917Y258029D01*
Y257393D01*
X40160Y256805D01*
X40610Y256354D01*
X40959Y256210D01*
Y255669D01*
X40610Y255524D01*
X40160Y255074D01*
X39917Y254486D01*
Y253850D01*
X40160Y253261D01*
X40610Y252811D01*
X41198Y252568D01*
X41835D01*
X42423Y252811D01*
X42873Y253261D01*
X43117Y253850D01*
Y254486D01*
X42873Y255074D01*
X42423Y255524D01*
X42074Y255669D01*
Y256210D01*
X42423Y256354D01*
X42873Y256805D01*
X43117Y257393D01*
Y258029D01*
X42873Y258617D01*
X42423Y259067D01*
X42074Y259212D01*
Y259753D01*
X42423Y259898D01*
X42873Y260348D01*
X43117Y260936D01*
Y261573D01*
X42873Y262161D01*
X42423Y262611D01*
X41835Y262854D01*
D02*
G37*
G36*
X54163Y254048D02*
X53527D01*
X52939Y253805D01*
X52489Y253355D01*
X52245Y252766D01*
Y252130D01*
X52489Y251542D01*
X52939Y251092D01*
X53527Y250848D01*
X54163D01*
X54752Y251092D01*
X55202Y251542D01*
X55445Y252130D01*
Y252766D01*
X55202Y253355D01*
X54752Y253805D01*
X54163Y254048D01*
D02*
G37*
G36*
X29018Y251898D02*
X28382D01*
X27794Y251655D01*
X27344Y251205D01*
X27100Y250617D01*
Y249980D01*
X27344Y249392D01*
X27794Y248942D01*
X28382Y248698D01*
X29018D01*
X29606Y248942D01*
X30056Y249392D01*
X30300Y249980D01*
Y250617D01*
X30056Y251205D01*
X29606Y251655D01*
X29018Y251898D01*
D02*
G37*
G36*
X190318Y305754D02*
X189682D01*
X189093Y305511D01*
X188643Y305061D01*
X188400Y304473D01*
Y303836D01*
X188643Y303248D01*
X189093Y302798D01*
X189682Y302554D01*
X190318D01*
X190906Y302798D01*
X191356Y303248D01*
X191600Y303836D01*
Y304473D01*
X191356Y305061D01*
X190906Y305511D01*
X190318Y305754D01*
D02*
G37*
G36*
X186049Y305200D02*
X185412D01*
X184824Y304956D01*
X184374Y304506D01*
X184130Y303918D01*
Y303282D01*
X184374Y302694D01*
X184824Y302244D01*
X185412Y302000D01*
X186049D01*
X186637Y302244D01*
X187087Y302694D01*
X187330Y303282D01*
Y303918D01*
X187087Y304506D01*
X186637Y304956D01*
X186049Y305200D01*
D02*
G37*
G36*
X181918D02*
X181282D01*
X180694Y304956D01*
X180244Y304506D01*
X180000Y303918D01*
Y303282D01*
X180244Y302694D01*
X180694Y302244D01*
X181282Y302000D01*
X181918D01*
X182506Y302244D01*
X182956Y302694D01*
X183200Y303282D01*
Y303918D01*
X182956Y304506D01*
X182506Y304956D01*
X181918Y305200D01*
D02*
G37*
G36*
X164395Y305002D02*
X163759D01*
X163171Y304758D01*
X162720Y304308D01*
X162477Y303720D01*
Y303083D01*
X162720Y302496D01*
X163171Y302045D01*
X163759Y301802D01*
X164395D01*
X164983Y302045D01*
X165433Y302496D01*
X165677Y303083D01*
Y303720D01*
X165433Y304308D01*
X164983Y304758D01*
X164395Y305002D01*
D02*
G37*
G36*
X150379Y304197D02*
X149743D01*
X149155Y303953D01*
X148705Y303503D01*
X148461Y302915D01*
Y302278D01*
X148705Y301690D01*
X149155Y301240D01*
X149743Y300997D01*
X150379D01*
X150967Y301240D01*
X151417Y301690D01*
X151661Y302278D01*
Y302915D01*
X151417Y303503D01*
X150967Y303953D01*
X150379Y304197D01*
D02*
G37*
G36*
X177387Y302454D02*
X176751D01*
X176163Y302211D01*
X175713Y301761D01*
X175469Y301173D01*
Y300536D01*
X175713Y299948D01*
X176163Y299498D01*
X176751Y299254D01*
X177387D01*
X177975Y299498D01*
X178425Y299948D01*
X178669Y300536D01*
Y301173D01*
X178425Y301761D01*
X177975Y302211D01*
X177387Y302454D01*
D02*
G37*
G36*
X168726Y299187D02*
X168089D01*
X167501Y298943D01*
X167051Y298493D01*
X166807Y297905D01*
Y297269D01*
X167051Y296680D01*
X167501Y296230D01*
X168089Y295987D01*
X168726D01*
X169314Y296230D01*
X169764Y296680D01*
X170007Y297269D01*
Y297905D01*
X169764Y298493D01*
X169314Y298943D01*
X168726Y299187D01*
D02*
G37*
G36*
X196218Y297750D02*
X195582D01*
X194994Y297506D01*
X194544Y297056D01*
X194300Y296468D01*
Y295831D01*
X194544Y295243D01*
X194994Y294793D01*
X195582Y294550D01*
X196218D01*
X196806Y294793D01*
X197256Y295243D01*
X197500Y295831D01*
Y296468D01*
X197256Y297056D01*
X196806Y297506D01*
X196218Y297750D01*
D02*
G37*
G36*
X154718Y270700D02*
X154082D01*
X153494Y270456D01*
X153044Y270006D01*
X152800Y269418D01*
Y268782D01*
X153044Y268194D01*
X153494Y267744D01*
X154082Y267500D01*
X154718D01*
X155306Y267744D01*
X155756Y268194D01*
X156000Y268782D01*
Y269418D01*
X155756Y270006D01*
X155306Y270456D01*
X154718Y270700D01*
D02*
G37*
G36*
X196218Y248855D02*
X195582D01*
X194994Y248612D01*
X194544Y248162D01*
X194300Y247573D01*
Y246937D01*
X194544Y246349D01*
X194994Y245899D01*
X195582Y245655D01*
X196218D01*
X196806Y245899D01*
X197256Y246349D01*
X197500Y246937D01*
Y247573D01*
X197256Y248162D01*
X196806Y248612D01*
X196218Y248855D01*
D02*
G37*
G36*
X196077Y242920D02*
X195441D01*
X194853Y242677D01*
X194403Y242227D01*
X194159Y241638D01*
Y241002D01*
X194403Y240414D01*
X194853Y239964D01*
X195441Y239720D01*
X196077D01*
X196541Y239912D01*
X196684Y239796D01*
X196881Y239526D01*
X196671Y239019D01*
Y238382D01*
X196915Y237794D01*
X197191Y237518D01*
X196915Y237241D01*
X196671Y236653D01*
Y236017D01*
X196915Y235429D01*
X197058Y235285D01*
X197347Y234959D01*
X197058Y234632D01*
X196915Y234489D01*
X196671Y233901D01*
Y233264D01*
X196915Y232676D01*
X197365Y232226D01*
X197953Y231983D01*
X198589D01*
X199177Y232226D01*
X199627Y232676D01*
X199871Y233264D01*
Y233901D01*
X199627Y234489D01*
X199484Y234632D01*
X199195Y234959D01*
X199484Y235285D01*
X199627Y235429D01*
X199871Y236017D01*
Y236653D01*
X199627Y237241D01*
X199351Y237518D01*
X199627Y237794D01*
X199871Y238382D01*
Y239019D01*
X199627Y239607D01*
X199177Y240057D01*
X198589Y240301D01*
X197953D01*
X197489Y240108D01*
X197346Y240225D01*
X197149Y240494D01*
X197359Y241002D01*
Y241638D01*
X197115Y242227D01*
X196665Y242677D01*
X196077Y242920D01*
D02*
G37*
G36*
X74860Y209237D02*
X74224D01*
X73636Y208993D01*
X73186Y208543D01*
X72942Y207955D01*
Y207319D01*
X73186Y206731D01*
X73636Y206280D01*
X74224Y206037D01*
X74860D01*
X75449Y206280D01*
X75899Y206731D01*
X76142Y207319D01*
Y207955D01*
X75899Y208543D01*
X75449Y208993D01*
X74860Y209237D01*
D02*
G37*
G36*
X89076Y209100D02*
X88440D01*
X87852Y208856D01*
X87401Y208406D01*
X87158Y207818D01*
Y207182D01*
X87401Y206594D01*
X87852Y206144D01*
X88440Y205900D01*
X89076D01*
X89664Y206144D01*
X90114Y206594D01*
X90358Y207182D01*
Y207818D01*
X90114Y208406D01*
X89664Y208856D01*
X89076Y209100D01*
D02*
G37*
G36*
X70152D02*
X69515D01*
X68927Y208856D01*
X68477Y208406D01*
X68233Y207818D01*
Y207182D01*
X68477Y206594D01*
X68927Y206144D01*
X69515Y205900D01*
X70152D01*
X70740Y206144D01*
X71190Y206594D01*
X71433Y207182D01*
Y207818D01*
X71190Y208406D01*
X70740Y208856D01*
X70152Y209100D01*
D02*
G37*
G36*
X65454D02*
X64818D01*
X64230Y208856D01*
X63779Y208406D01*
X63536Y207818D01*
Y207182D01*
X63779Y206594D01*
X64230Y206144D01*
X64818Y205900D01*
X65454D01*
X66042Y206144D01*
X66492Y206594D01*
X66736Y207182D01*
Y207818D01*
X66492Y208406D01*
X66042Y208856D01*
X65454Y209100D01*
D02*
G37*
G36*
X98525Y209031D02*
X97888D01*
X97300Y208787D01*
X96850Y208337D01*
X96607Y207749D01*
Y207113D01*
X96850Y206524D01*
X97300Y206074D01*
X97888Y205831D01*
X98525D01*
X99113Y206074D01*
X99563Y206524D01*
X99807Y207113D01*
Y207749D01*
X99563Y208337D01*
X99113Y208787D01*
X98525Y209031D01*
D02*
G37*
G36*
X93800D02*
X93164D01*
X92576Y208787D01*
X92126Y208337D01*
X91882Y207749D01*
Y207113D01*
X92126Y206524D01*
X92576Y206074D01*
X93164Y205831D01*
X93800D01*
X94389Y206074D01*
X94839Y206524D01*
X95082Y207113D01*
Y207749D01*
X94839Y208337D01*
X94389Y208787D01*
X93800Y209031D01*
D02*
G37*
G36*
X122147Y209018D02*
X121511D01*
X120923Y208774D01*
X120472Y208324D01*
X120229Y207736D01*
Y207100D01*
X120472Y206512D01*
X120923Y206062D01*
X121511Y205818D01*
X122147D01*
X122735Y206062D01*
X123185Y206512D01*
X123429Y207100D01*
Y207736D01*
X123185Y208324D01*
X122735Y208774D01*
X122147Y209018D01*
D02*
G37*
G36*
X32383D02*
X31747D01*
X31159Y208774D01*
X30709Y208324D01*
X30465Y207736D01*
Y207100D01*
X30709Y206512D01*
X31159Y206062D01*
X31747Y205818D01*
X32383D01*
X32971Y206062D01*
X33421Y206512D01*
X33665Y207100D01*
Y207736D01*
X33421Y208324D01*
X32971Y208774D01*
X32383Y209018D01*
D02*
G37*
G36*
X136118Y207000D02*
X135482D01*
X134894Y206756D01*
X134444Y206306D01*
X134200Y205718D01*
Y205082D01*
X134444Y204494D01*
X134894Y204044D01*
X135482Y203800D01*
X136118D01*
X136706Y204044D01*
X137156Y204494D01*
X137400Y205082D01*
Y205718D01*
X137156Y206306D01*
X136706Y206756D01*
X136118Y207000D01*
D02*
G37*
G36*
X206018Y204858D02*
X205382D01*
X204794Y204614D01*
X204344Y204164D01*
X204100Y203576D01*
Y202939D01*
X204344Y202351D01*
X204794Y201901D01*
X205382Y201658D01*
X206018D01*
X206606Y201901D01*
X207056Y202351D01*
X207300Y202939D01*
Y203576D01*
X207056Y204164D01*
X206606Y204614D01*
X206018Y204858D01*
D02*
G37*
G36*
X152653D02*
X152016D01*
X151428Y204614D01*
X150978Y204164D01*
X150734Y203576D01*
Y202939D01*
X150978Y202351D01*
X151428Y201901D01*
X152016Y201658D01*
X152653D01*
X153241Y201901D01*
X153691Y202351D01*
X153934Y202939D01*
Y203576D01*
X153691Y204164D01*
X153241Y204614D01*
X152653Y204858D01*
D02*
G37*
G36*
X175787Y200239D02*
X175151D01*
X174563Y199996D01*
X174113Y199546D01*
X173869Y198958D01*
Y198321D01*
X174113Y197733D01*
X174563Y197283D01*
X175151Y197039D01*
X175787D01*
X176375Y197283D01*
X176825Y197733D01*
X177069Y198321D01*
Y198958D01*
X176825Y199546D01*
X176375Y199996D01*
X175787Y200239D01*
D02*
G37*
G36*
X201639Y187600D02*
X201003D01*
X200414Y187356D01*
X199964Y186906D01*
X199721Y186318D01*
Y185682D01*
X199964Y185094D01*
X200414Y184644D01*
X201003Y184400D01*
X201639D01*
X202227Y184644D01*
X202677Y185094D01*
X202921Y185682D01*
Y186318D01*
X202677Y186906D01*
X202227Y187356D01*
X201639Y187600D01*
D02*
G37*
G36*
X139518Y185100D02*
X138882D01*
X138294Y184856D01*
X137844Y184406D01*
X137600Y183818D01*
Y183182D01*
X137844Y182594D01*
X138294Y182144D01*
X138882Y181900D01*
X139518D01*
X140106Y182144D01*
X140556Y182594D01*
X140800Y183182D01*
Y183818D01*
X140556Y184406D01*
X140106Y184856D01*
X139518Y185100D01*
D02*
G37*
G36*
X113418Y182067D02*
X112782D01*
X112194Y181823D01*
X111744Y181373D01*
X111500Y180785D01*
Y180149D01*
X111744Y179561D01*
X112194Y179111D01*
X112782Y178867D01*
X113418D01*
X114006Y179111D01*
X114456Y179561D01*
X114700Y180149D01*
Y180785D01*
X114456Y181373D01*
X114006Y181823D01*
X113418Y182067D01*
D02*
G37*
G36*
X181106Y180248D02*
X180470D01*
X179881Y180004D01*
X179431Y179554D01*
X179188Y178966D01*
Y178330D01*
X179431Y177742D01*
X179881Y177291D01*
X180470Y177048D01*
X181106D01*
X181694Y177291D01*
X182144Y177742D01*
X182388Y178330D01*
Y178966D01*
X182144Y179554D01*
X181694Y180004D01*
X181106Y180248D01*
D02*
G37*
G36*
X161359Y174287D02*
X160723D01*
X160135Y174044D01*
X159685Y173594D01*
X159441Y173006D01*
Y172369D01*
X159685Y171781D01*
X160135Y171331D01*
X160723Y171087D01*
X161359D01*
X161948Y171331D01*
X162398Y171781D01*
X162641Y172369D01*
Y173006D01*
X162398Y173594D01*
X161948Y174044D01*
X161359Y174287D01*
D02*
G37*
G36*
X135743D02*
X135106D01*
X134518Y174044D01*
X134068Y173594D01*
X133825Y173006D01*
Y172369D01*
X134068Y171781D01*
X134518Y171331D01*
X135106Y171087D01*
X135743D01*
X136331Y171331D01*
X136781Y171781D01*
X137024Y172369D01*
Y173006D01*
X136781Y173594D01*
X136331Y174044D01*
X135743Y174287D01*
D02*
G37*
G36*
X63816D02*
X63179D01*
X62591Y174044D01*
X62141Y173594D01*
X61897Y173006D01*
Y172369D01*
X62141Y171781D01*
X62591Y171331D01*
X63179Y171087D01*
X63816D01*
X64404Y171331D01*
X64854Y171781D01*
X65097Y172369D01*
Y173006D01*
X64854Y173594D01*
X64404Y174044D01*
X63816Y174287D01*
D02*
G37*
G36*
X175040Y158880D02*
X174360D01*
X173704Y158704D01*
X173116Y158364D01*
X172635Y157884D01*
X172489Y157630D01*
X171911D01*
X171765Y157884D01*
X171284Y158364D01*
X170696Y158704D01*
X170040Y158880D01*
X169360D01*
X168704Y158704D01*
X168116Y158364D01*
X167636Y157884D01*
X167489Y157630D01*
X166911D01*
X166764Y157884D01*
X166284Y158364D01*
X165696Y158704D01*
X165040Y158880D01*
X164360D01*
X163704Y158704D01*
X163116Y158364D01*
X162636Y157884D01*
X162489Y157630D01*
X161911D01*
X161765Y157884D01*
X161284Y158364D01*
X160696Y158704D01*
X160040Y158880D01*
X159360D01*
X158704Y158704D01*
X158116Y158364D01*
X157635Y157884D01*
X157489Y157630D01*
X156911D01*
X156764Y157884D01*
X156284Y158364D01*
X155696Y158704D01*
X155040Y158880D01*
X154360D01*
X153704Y158704D01*
X153116Y158364D01*
X152636Y157884D01*
X152296Y157296D01*
X152120Y156640D01*
Y155960D01*
X152296Y155304D01*
X152636Y154716D01*
X153116Y154235D01*
X153170Y154204D01*
X153170Y153627D01*
X152993Y153524D01*
X152476Y153007D01*
X152109Y152373D01*
X151956Y151800D01*
X154700D01*
Y151300D01*
X155200D01*
Y148556D01*
X155773Y148709D01*
X156407Y149075D01*
X156924Y149593D01*
X157027Y149770D01*
X157604Y149770D01*
X157635Y149716D01*
X158116Y149235D01*
X158704Y148896D01*
X159360Y148720D01*
X160040D01*
X160696Y148896D01*
X161284Y149235D01*
X161765Y149716D01*
X161911Y149970D01*
X162489D01*
X162636Y149716D01*
X163116Y149235D01*
X163704Y148896D01*
X164360Y148720D01*
X165040D01*
X165696Y148896D01*
X166284Y149235D01*
X166764Y149716D01*
X166911Y149970D01*
X167489D01*
X167636Y149716D01*
X168116Y149235D01*
X168704Y148896D01*
X169360Y148720D01*
X170040D01*
X170696Y148896D01*
X171284Y149235D01*
X171765Y149716D01*
X171911Y149970D01*
X172489D01*
X172635Y149716D01*
X173116Y149235D01*
X173704Y148896D01*
X174360Y148720D01*
X175040D01*
X175696Y148896D01*
X176284Y149235D01*
X176765Y149716D01*
X177104Y150304D01*
X177280Y150960D01*
Y151640D01*
X177104Y152296D01*
X176765Y152884D01*
X176284Y153365D01*
X176030Y153511D01*
Y154089D01*
X176284Y154235D01*
X176765Y154716D01*
X177104Y155304D01*
X177280Y155960D01*
Y156640D01*
X177104Y157296D01*
X176765Y157884D01*
X176284Y158364D01*
X175696Y158704D01*
X175040Y158880D01*
D02*
G37*
G36*
X133563Y159852D02*
X132926D01*
X132339Y159608D01*
X131888Y159158D01*
X131645Y158570D01*
Y157934D01*
X131888Y157346D01*
X132339Y156896D01*
X132926Y156652D01*
X133563D01*
X134151Y156896D01*
X134601Y157346D01*
X134845Y157934D01*
Y158570D01*
X134601Y159158D01*
X134151Y159608D01*
X133563Y159852D01*
D02*
G37*
G36*
X122147Y156500D02*
X121511D01*
X120923Y156256D01*
X120472Y155806D01*
X120229Y155218D01*
Y154582D01*
X120472Y153994D01*
X120923Y153544D01*
X121511Y153300D01*
X122147D01*
X122735Y153544D01*
X123185Y153994D01*
X123429Y154582D01*
Y155218D01*
X123185Y155806D01*
X122735Y156256D01*
X122147Y156500D01*
D02*
G37*
G36*
X32492D02*
X31855D01*
X31267Y156256D01*
X30817Y155806D01*
X30574Y155218D01*
Y154582D01*
X30817Y153994D01*
X31267Y153544D01*
X31855Y153300D01*
X32492D01*
X33080Y153544D01*
X33530Y153994D01*
X33774Y154582D01*
Y155218D01*
X33530Y155806D01*
X33080Y156256D01*
X32492Y156500D01*
D02*
G37*
G36*
X154200Y150800D02*
X151956D01*
X152109Y150227D01*
X152476Y149593D01*
X152993Y149075D01*
X153627Y148709D01*
X154200Y148556D01*
Y150800D01*
D02*
G37*
G36*
X142218Y150029D02*
X141582D01*
X140994Y149785D01*
X140544Y149335D01*
X140300Y148747D01*
Y148111D01*
X140544Y147523D01*
X140994Y147073D01*
X141582Y146829D01*
X142218D01*
X142806Y147073D01*
X143256Y147523D01*
X143500Y148111D01*
Y148747D01*
X143256Y149335D01*
X142806Y149785D01*
X142218Y150029D01*
D02*
G37*
G36*
X107974Y148327D02*
X107337D01*
X106749Y148083D01*
X106299Y147633D01*
X106056Y147045D01*
Y146409D01*
X106299Y145820D01*
X106749Y145370D01*
X107337Y145127D01*
X107974D01*
X108562Y145370D01*
X109012Y145820D01*
X109256Y146409D01*
Y147045D01*
X109012Y147633D01*
X108562Y148083D01*
X107974Y148327D01*
D02*
G37*
G36*
X74860D02*
X74224D01*
X73636Y148083D01*
X73186Y147633D01*
X72942Y147045D01*
Y146409D01*
X73186Y145820D01*
X73636Y145370D01*
X74224Y145127D01*
X74860D01*
X75449Y145370D01*
X75899Y145820D01*
X76142Y146409D01*
Y147045D01*
X75899Y147633D01*
X75449Y148083D01*
X74860Y148327D01*
D02*
G37*
G36*
X70179D02*
X69542D01*
X68954Y148083D01*
X68504Y147633D01*
X68260Y147045D01*
Y146409D01*
X68504Y145820D01*
X68954Y145370D01*
X69542Y145127D01*
X70179D01*
X70767Y145370D01*
X71217Y145820D01*
X71460Y146409D01*
Y147045D01*
X71217Y147633D01*
X70767Y148083D01*
X70179Y148327D01*
D02*
G37*
G36*
X47731Y143564D02*
X47094D01*
X46506Y143321D01*
X46056Y142871D01*
X45813Y142282D01*
Y141646D01*
X46056Y141058D01*
X46506Y140608D01*
X47094Y140364D01*
X47731D01*
X48319Y140608D01*
X48769Y141058D01*
X49013Y141646D01*
Y142282D01*
X48769Y142871D01*
X48319Y143321D01*
X47731Y143564D01*
D02*
G37*
G36*
X137772Y143300D02*
X137136D01*
X136548Y143057D01*
X136098Y142606D01*
X135854Y142018D01*
Y141382D01*
X136098Y140794D01*
X136548Y140344D01*
X137136Y140100D01*
X137772D01*
X138360Y140344D01*
X138810Y140794D01*
X139054Y141382D01*
Y142018D01*
X138810Y142606D01*
X138360Y143057D01*
X137772Y143300D01*
D02*
G37*
G36*
X153668Y138850D02*
X153031D01*
X152443Y138607D01*
X151993Y138157D01*
X151750Y137569D01*
Y136932D01*
X151993Y136344D01*
X152443Y135894D01*
X153031Y135651D01*
X153668D01*
X154256Y135894D01*
X154706Y136344D01*
X154949Y136932D01*
Y137569D01*
X154706Y138157D01*
X154256Y138607D01*
X153668Y138850D01*
D02*
G37*
G36*
X84352Y135500D02*
X83715D01*
X83127Y135256D01*
X82677Y134806D01*
X82433Y134218D01*
Y133582D01*
X82677Y132994D01*
X83127Y132544D01*
X83715Y132300D01*
X84352D01*
X84940Y132544D01*
X85390Y132994D01*
X85633Y133582D01*
Y134218D01*
X85390Y134806D01*
X84940Y135256D01*
X84352Y135500D01*
D02*
G37*
G36*
X78679D02*
X78042D01*
X77454Y135256D01*
X77004Y134806D01*
X76761Y134218D01*
Y133582D01*
X77004Y132994D01*
X77454Y132544D01*
X78042Y132300D01*
X78679D01*
X79267Y132544D01*
X79717Y132994D01*
X79961Y133582D01*
Y134218D01*
X79717Y134806D01*
X79267Y135256D01*
X78679Y135500D01*
D02*
G37*
G36*
X65454D02*
X64818D01*
X64229Y135256D01*
X63779Y134806D01*
X63536Y134218D01*
Y133582D01*
X63779Y132994D01*
X64229Y132544D01*
X64818Y132300D01*
X65454D01*
X66042Y132544D01*
X66492Y132994D01*
X66736Y133582D01*
Y134218D01*
X66492Y134806D01*
X66042Y135256D01*
X65454Y135500D01*
D02*
G37*
G36*
X90918Y133700D02*
X90282D01*
X89694Y133456D01*
X89244Y133006D01*
X89000Y132418D01*
Y131782D01*
X89244Y131194D01*
X89694Y130744D01*
X90282Y130500D01*
X90918D01*
X91506Y130744D01*
X91956Y131194D01*
X92200Y131782D01*
Y132418D01*
X91956Y133006D01*
X91506Y133456D01*
X90918Y133700D01*
D02*
G37*
G36*
X90149Y125792D02*
X89513D01*
X88925Y125548D01*
X88475Y125098D01*
X88231Y124510D01*
Y123874D01*
X88475Y123285D01*
X88925Y122836D01*
X89513Y122592D01*
X90149D01*
X90737Y122836D01*
X91187Y123285D01*
X91431Y123874D01*
Y124510D01*
X91187Y125098D01*
X90737Y125548D01*
X90149Y125792D01*
D02*
G37*
G36*
X33418Y123202D02*
X32782D01*
X32194Y122959D01*
X31744Y122509D01*
X31500Y121921D01*
Y121284D01*
X31744Y120696D01*
X32194Y120246D01*
X32782Y120002D01*
X33418D01*
X34006Y120246D01*
X34456Y120696D01*
X34700Y121284D01*
Y121921D01*
X34456Y122509D01*
X34006Y122959D01*
X33418Y123202D01*
D02*
G37*
G36*
X123818Y111652D02*
X123182D01*
X122594Y111408D01*
X122144Y110958D01*
X121900Y110370D01*
Y109734D01*
X122144Y109146D01*
X122594Y108696D01*
X123182Y108452D01*
X123818D01*
X124406Y108696D01*
X124856Y109146D01*
X125100Y109734D01*
Y110370D01*
X124856Y110958D01*
X124406Y111408D01*
X123818Y111652D01*
D02*
G37*
G36*
X160166Y111450D02*
X159529D01*
X158941Y111207D01*
X158491Y110757D01*
X158247Y110169D01*
Y109532D01*
X158491Y108944D01*
X158941Y108494D01*
X159529Y108250D01*
X160166D01*
X160754Y108494D01*
X161204Y108944D01*
X161447Y109532D01*
Y110169D01*
X161204Y110757D01*
X160754Y111207D01*
X160166Y111450D01*
D02*
G37*
G36*
X81273Y108074D02*
X80636D01*
X80048Y107830D01*
X79598Y107380D01*
X79355Y106792D01*
Y106156D01*
X79598Y105568D01*
X80048Y105118D01*
X80636Y104874D01*
X81273D01*
X81861Y105118D01*
X82311Y105568D01*
X82555Y106156D01*
Y106792D01*
X82311Y107380D01*
X81861Y107830D01*
X81273Y108074D01*
D02*
G37*
G36*
X150288Y107245D02*
X149651D01*
X149063Y107001D01*
X148613Y106551D01*
X148369Y105963D01*
Y105326D01*
X148613Y104738D01*
X149063Y104288D01*
X149651Y104045D01*
X150288D01*
X150876Y104288D01*
X151326Y104738D01*
X151569Y105326D01*
Y105963D01*
X151326Y106551D01*
X150876Y107001D01*
X150288Y107245D01*
D02*
G37*
G36*
X114243Y107200D02*
X113607D01*
X113018Y106956D01*
X112568Y106506D01*
X112325Y105918D01*
Y105282D01*
X112568Y104694D01*
X113018Y104244D01*
X113607Y104000D01*
X114243D01*
X114831Y104244D01*
X115281Y104694D01*
X115525Y105282D01*
Y105918D01*
X115281Y106506D01*
X114831Y106956D01*
X114243Y107200D01*
D02*
G37*
G36*
X103218Y87553D02*
X102582D01*
X101994Y87309D01*
X101544Y86859D01*
X101300Y86271D01*
Y85634D01*
X101544Y85046D01*
X101994Y84596D01*
X102582Y84353D01*
X103218D01*
X103806Y84596D01*
X104256Y85046D01*
X104500Y85634D01*
Y86271D01*
X104256Y86859D01*
X103806Y87309D01*
X103218Y87553D01*
D02*
G37*
G36*
X58818Y76451D02*
X58182D01*
X57594Y76208D01*
X57144Y75757D01*
X56900Y75169D01*
Y74533D01*
X57144Y73945D01*
X57594Y73495D01*
X58182Y73251D01*
X58818D01*
X59406Y73495D01*
X59856Y73945D01*
X60100Y74533D01*
Y75169D01*
X59856Y75757D01*
X59406Y76208D01*
X58818Y76451D01*
D02*
G37*
G36*
X76427Y76300D02*
X75791D01*
X75203Y76056D01*
X74753Y75606D01*
X74509Y75018D01*
Y74382D01*
X74753Y73794D01*
X75203Y73343D01*
X75791Y73100D01*
X76427D01*
X77015Y73343D01*
X77465Y73794D01*
X77709Y74382D01*
Y75018D01*
X77465Y75606D01*
X77015Y76056D01*
X76427Y76300D01*
D02*
G37*
G36*
X148040Y72164D02*
X146845D01*
X145691Y71855D01*
X144657Y71258D01*
X143812Y70413D01*
X143215Y69379D01*
X142905Y68225D01*
Y67030D01*
X143215Y65876D01*
X143812Y64842D01*
X144657Y63997D01*
X145691Y63400D01*
X146845Y63090D01*
X148040D01*
X149194Y63400D01*
X150228Y63997D01*
X151073Y64842D01*
X151670Y65876D01*
X151979Y67030D01*
Y68225D01*
X151670Y69379D01*
X151073Y70413D01*
X150228Y71258D01*
X149194Y71855D01*
X148040Y72164D01*
D02*
G37*
G36*
X138197D02*
X137003D01*
X135849Y71855D01*
X134814Y71258D01*
X133969Y70413D01*
X133372Y69379D01*
X133063Y68225D01*
Y67030D01*
X133372Y65876D01*
X133969Y64842D01*
X134814Y63997D01*
X135849Y63400D01*
X137003Y63090D01*
X138197D01*
X139351Y63400D01*
X140386Y63997D01*
X141230Y64842D01*
X141828Y65876D01*
X142137Y67030D01*
Y68225D01*
X141828Y69379D01*
X141230Y70413D01*
X140386Y71258D01*
X139351Y71855D01*
X138197Y72164D01*
D02*
G37*
G36*
X128355D02*
X127160D01*
X126006Y71855D01*
X124972Y71258D01*
X124127Y70413D01*
X123530Y69379D01*
X123220Y68225D01*
Y67030D01*
X123530Y65876D01*
X124127Y64842D01*
X124972Y63997D01*
X126006Y63400D01*
X127160Y63090D01*
X128355D01*
X129509Y63400D01*
X130543Y63997D01*
X131388Y64842D01*
X131985Y65876D01*
X132294Y67030D01*
Y68225D01*
X131985Y69379D01*
X131388Y70413D01*
X130543Y71258D01*
X129509Y71855D01*
X128355Y72164D01*
D02*
G37*
G36*
X43018Y60100D02*
X42382D01*
X41794Y59856D01*
X41344Y59406D01*
X41100Y58818D01*
Y58182D01*
X41344Y57594D01*
X41794Y57144D01*
X42382Y56900D01*
X43018D01*
X43606Y57144D01*
X44056Y57594D01*
X44300Y58182D01*
Y58818D01*
X44056Y59406D01*
X43606Y59856D01*
X43018Y60100D01*
D02*
G37*
G36*
X103218Y59200D02*
X102582D01*
X101994Y58956D01*
X101544Y58506D01*
X101300Y57918D01*
Y57282D01*
X101544Y56694D01*
X101994Y56244D01*
X102582Y56000D01*
X103218D01*
X103806Y56244D01*
X104256Y56694D01*
X104500Y57282D01*
Y57918D01*
X104256Y58506D01*
X103806Y58956D01*
X103218Y59200D01*
D02*
G37*
G36*
X23518Y58100D02*
X22882D01*
X22294Y57856D01*
X21844Y57406D01*
X21600Y56818D01*
Y56182D01*
X21844Y55594D01*
X22294Y55144D01*
X22882Y54900D01*
X23518D01*
X24106Y55144D01*
X24556Y55594D01*
X24800Y56182D01*
Y56818D01*
X24556Y57406D01*
X24106Y57856D01*
X23518Y58100D01*
D02*
G37*
G36*
X56718Y43700D02*
X56082D01*
X55494Y43456D01*
X55044Y43006D01*
X54800Y42418D01*
Y41782D01*
X55044Y41194D01*
X55494Y40744D01*
X56082Y40500D01*
X56718D01*
X57306Y40744D01*
X57756Y41194D01*
X58000Y41782D01*
Y42418D01*
X57756Y43006D01*
X57306Y43456D01*
X56718Y43700D01*
D02*
G37*
G36*
X156104Y44260D02*
X154663Y44070D01*
X153319Y43513D01*
X152166Y42628D01*
X151281Y41475D01*
X150725Y40132D01*
X150535Y38691D01*
Y37510D01*
X150725Y36068D01*
X151281Y34725D01*
X152166Y33572D01*
X153319Y32687D01*
X154663Y32130D01*
X156104Y31941D01*
X157545Y32130D01*
X158888Y32687D01*
X160042Y33572D01*
X160927Y34725D01*
X161483Y36068D01*
X161673Y37510D01*
Y38691D01*
X161483Y40132D01*
X160927Y41475D01*
X160042Y42628D01*
X158888Y43513D01*
X157545Y44070D01*
X156104Y44260D01*
D02*
G37*
G36*
X119096D02*
X117655Y44070D01*
X116312Y43513D01*
X115158Y42628D01*
X114273Y41475D01*
X113717Y40132D01*
X113527Y38691D01*
Y37510D01*
X113717Y36068D01*
X114273Y34725D01*
X115158Y33572D01*
X116312Y32687D01*
X117655Y32130D01*
X119096Y31941D01*
X120537Y32130D01*
X121880Y32687D01*
X123034Y33572D01*
X123919Y34725D01*
X124475Y36068D01*
X124665Y37510D01*
Y38691D01*
X124475Y40132D01*
X123919Y41475D01*
X123034Y42628D01*
X121880Y43513D01*
X120537Y44070D01*
X119096Y44260D01*
D02*
G37*
G36*
X51578Y29000D02*
X50942D01*
X50353Y28756D01*
X49903Y28306D01*
X49660Y27718D01*
Y27082D01*
X49903Y26494D01*
X50353Y26044D01*
X50942Y25800D01*
X51578D01*
X52166Y26044D01*
X52616Y26494D01*
X52860Y27082D01*
Y27718D01*
X52616Y28306D01*
X52166Y28756D01*
X51578Y29000D01*
D02*
G37*
G36*
X148040Y15078D02*
X146845D01*
X145691Y14769D01*
X144657Y14171D01*
X143812Y13327D01*
X143215Y12292D01*
X142905Y11138D01*
Y9944D01*
X143215Y8790D01*
X143812Y7755D01*
X144657Y6910D01*
X145691Y6313D01*
X146845Y6004D01*
X148040D01*
X149194Y6313D01*
X150228Y6910D01*
X151073Y7755D01*
X151670Y8790D01*
X151979Y9944D01*
Y11138D01*
X151670Y12292D01*
X151073Y13327D01*
X150228Y14171D01*
X149194Y14769D01*
X148040Y15078D01*
D02*
G37*
G36*
X128355D02*
X127160D01*
X126006Y14769D01*
X124972Y14171D01*
X124127Y13327D01*
X123530Y12292D01*
X123220Y11138D01*
Y9944D01*
X123530Y8790D01*
X124127Y7755D01*
X124972Y6910D01*
X126006Y6313D01*
X127160Y6004D01*
X128355D01*
X129509Y6313D01*
X130543Y6910D01*
X131388Y7755D01*
X131985Y8790D01*
X132294Y9944D01*
Y11138D01*
X131985Y12292D01*
X131388Y13327D01*
X130543Y14171D01*
X129509Y14769D01*
X128355Y15078D01*
D02*
G37*
G36*
X233493Y270301D02*
X232856D01*
X232268Y270058D01*
X231892Y269681D01*
X231600Y269639D01*
X231307Y269681D01*
X230931Y270058D01*
X230343Y270301D01*
X229707D01*
X229118Y270058D01*
X228668Y269608D01*
X228425Y269020D01*
Y268383D01*
X228668Y267795D01*
X229118Y267345D01*
X229707Y267101D01*
X230343D01*
X230931Y267345D01*
X231307Y267721D01*
X231600Y267763D01*
X231892Y267721D01*
X232268Y267345D01*
X232856Y267101D01*
X233493D01*
X234081Y267345D01*
X234531Y267795D01*
X234774Y268383D01*
Y269020D01*
X234531Y269608D01*
X234081Y270058D01*
X233493Y270301D01*
D02*
G37*
G36*
X226936Y247992D02*
X226299D01*
X225711Y247748D01*
X225261Y247298D01*
X225017Y246710D01*
Y246074D01*
X225261Y245486D01*
X225711Y245036D01*
X226299Y244792D01*
X226936D01*
X227523Y245036D01*
X227974Y245486D01*
X228217Y246074D01*
Y246710D01*
X227974Y247298D01*
X227523Y247748D01*
X226936Y247992D01*
D02*
G37*
G36*
X293066Y243939D02*
X292430D01*
X291842Y243695D01*
X291392Y243245D01*
X291148Y242657D01*
Y242021D01*
X291392Y241433D01*
X291842Y240983D01*
X292430Y240739D01*
X293066D01*
X293654Y240983D01*
X294104Y241433D01*
X294348Y242021D01*
Y242657D01*
X294104Y243245D01*
X293654Y243695D01*
X293066Y243939D01*
D02*
G37*
G36*
X219455Y243549D02*
X218819D01*
X218231Y243305D01*
X217781Y242855D01*
X217537Y242267D01*
Y241631D01*
X217781Y241042D01*
X218231Y240592D01*
X218819Y240349D01*
X219455D01*
X220043Y240592D01*
X220493Y241042D01*
X220737Y241631D01*
Y242267D01*
X220493Y242855D01*
X220043Y243305D01*
X219455Y243549D01*
D02*
G37*
G36*
X215518D02*
X214882D01*
X214294Y243305D01*
X213844Y242855D01*
X213600Y242267D01*
Y241631D01*
X213844Y241042D01*
X214294Y240592D01*
X214882Y240349D01*
X215518D01*
X216106Y240592D01*
X216556Y241042D01*
X216800Y241631D01*
Y242267D01*
X216556Y242855D01*
X216106Y243305D01*
X215518Y243549D01*
D02*
G37*
G36*
X211581D02*
X210945D01*
X210357Y243305D01*
X209907Y242855D01*
X209663Y242267D01*
Y241631D01*
X209907Y241042D01*
X210357Y240592D01*
X210945Y240349D01*
X211581D01*
X212169Y240592D01*
X212619Y241042D01*
X212863Y241631D01*
Y242267D01*
X212619Y242855D01*
X212169Y243305D01*
X211581Y243549D01*
D02*
G37*
G36*
X219455Y238824D02*
X218819D01*
X218231Y238581D01*
X217781Y238131D01*
X217537Y237543D01*
Y236906D01*
X217781Y236318D01*
X218231Y235868D01*
X218819Y235624D01*
X219455D01*
X220043Y235868D01*
X220493Y236318D01*
X220737Y236906D01*
Y237543D01*
X220493Y238131D01*
X220043Y238581D01*
X219455Y238824D01*
D02*
G37*
G36*
X215518D02*
X214882D01*
X214294Y238581D01*
X213844Y238131D01*
X213600Y237543D01*
Y236906D01*
X213844Y236318D01*
X214294Y235868D01*
X214882Y235624D01*
X215518D01*
X216106Y235868D01*
X216556Y236318D01*
X216800Y236906D01*
Y237543D01*
X216556Y238131D01*
X216106Y238581D01*
X215518Y238824D01*
D02*
G37*
G36*
X211581D02*
X210945D01*
X210357Y238581D01*
X209907Y238131D01*
X209663Y237543D01*
Y236906D01*
X209907Y236318D01*
X210357Y235868D01*
X210945Y235624D01*
X211581D01*
X212169Y235868D01*
X212619Y236318D01*
X212863Y236906D01*
Y237543D01*
X212619Y238131D01*
X212169Y238581D01*
X211581Y238824D01*
D02*
G37*
G36*
X219455Y234100D02*
X218819D01*
X218231Y233856D01*
X217781Y233406D01*
X217537Y232818D01*
Y232182D01*
X217781Y231594D01*
X218231Y231144D01*
X218819Y230900D01*
X219455D01*
X220043Y231144D01*
X220493Y231594D01*
X220737Y232182D01*
Y232818D01*
X220493Y233406D01*
X220043Y233856D01*
X219455Y234100D01*
D02*
G37*
G36*
X215518D02*
X214882D01*
X214294Y233856D01*
X213844Y233406D01*
X213600Y232818D01*
Y232182D01*
X213844Y231594D01*
X214294Y231144D01*
X214882Y230900D01*
X215518D01*
X216106Y231144D01*
X216556Y231594D01*
X216800Y232182D01*
Y232818D01*
X216556Y233406D01*
X216106Y233856D01*
X215518Y234100D01*
D02*
G37*
G36*
X211581D02*
X210945D01*
X210357Y233856D01*
X209907Y233406D01*
X209663Y232818D01*
Y232182D01*
X209907Y231594D01*
X210357Y231144D01*
X210945Y230900D01*
X211581D01*
X212169Y231144D01*
X212619Y231594D01*
X212863Y232182D01*
Y232818D01*
X212619Y233406D01*
X212169Y233856D01*
X211581Y234100D01*
D02*
G37*
G36*
X219455Y229375D02*
X218819D01*
X218231Y229132D01*
X217781Y228682D01*
X217537Y228094D01*
Y227457D01*
X217781Y226869D01*
X218231Y226419D01*
X218819Y226175D01*
X219455D01*
X220043Y226419D01*
X220493Y226869D01*
X220737Y227457D01*
Y228094D01*
X220493Y228682D01*
X220043Y229132D01*
X219455Y229375D01*
D02*
G37*
G36*
X215518D02*
X214882D01*
X214294Y229132D01*
X213844Y228682D01*
X213600Y228094D01*
Y227457D01*
X213844Y226869D01*
X214294Y226419D01*
X214882Y226175D01*
X215518D01*
X216106Y226419D01*
X216556Y226869D01*
X216800Y227457D01*
Y228094D01*
X216556Y228682D01*
X216106Y229132D01*
X215518Y229375D01*
D02*
G37*
G36*
X211581D02*
X210945D01*
X210357Y229132D01*
X209907Y228682D01*
X209663Y228094D01*
Y227457D01*
X209907Y226869D01*
X210357Y226419D01*
X210945Y226175D01*
X211581D01*
X212169Y226419D01*
X212619Y226869D01*
X212863Y227457D01*
Y228094D01*
X212619Y228682D01*
X212169Y229132D01*
X211581Y229375D01*
D02*
G37*
G36*
X232985Y227505D02*
X232349D01*
X231761Y227262D01*
X231311Y226812D01*
X231067Y226224D01*
Y225587D01*
X231311Y224999D01*
X231761Y224549D01*
X232349Y224305D01*
X232985D01*
X233573Y224549D01*
X234023Y224999D01*
X234267Y225587D01*
Y226224D01*
X234023Y226812D01*
X233573Y227262D01*
X232985Y227505D01*
D02*
G37*
G36*
X286318Y224798D02*
X285682D01*
X285094Y224554D01*
X284644Y224104D01*
X284400Y223516D01*
Y222879D01*
X284644Y222291D01*
X285094Y221841D01*
X285682Y221598D01*
X286318D01*
X286906Y221841D01*
X287356Y222291D01*
X287600Y222879D01*
Y223516D01*
X287356Y224104D01*
X286906Y224554D01*
X286318Y224798D01*
D02*
G37*
G36*
X260418Y220400D02*
X259782D01*
X259194Y220156D01*
X258744Y219706D01*
X258500Y219118D01*
Y218482D01*
X258744Y217894D01*
X259194Y217444D01*
X259782Y217200D01*
X260418D01*
X261006Y217444D01*
X261456Y217894D01*
X261700Y218482D01*
Y219118D01*
X261456Y219706D01*
X261006Y220156D01*
X260418Y220400D01*
D02*
G37*
G36*
X254118D02*
X253482D01*
X252894Y220156D01*
X252444Y219706D01*
X252200Y219118D01*
Y218482D01*
X252444Y217894D01*
X252894Y217444D01*
X253482Y217200D01*
X254118D01*
X254706Y217444D01*
X255156Y217894D01*
X255400Y218482D01*
Y219118D01*
X255156Y219706D01*
X254706Y220156D01*
X254118Y220400D01*
D02*
G37*
G36*
X248732D02*
X248095D01*
X247507Y220156D01*
X247057Y219706D01*
X246813Y219118D01*
Y218482D01*
X247057Y217894D01*
X247507Y217444D01*
X248095Y217200D01*
X248732D01*
X249320Y217444D01*
X249770Y217894D01*
X250013Y218482D01*
Y219118D01*
X249770Y219706D01*
X249320Y220156D01*
X248732Y220400D01*
D02*
G37*
G36*
X243618D02*
X242982D01*
X242394Y220156D01*
X241944Y219706D01*
X241700Y219118D01*
Y218482D01*
X241944Y217894D01*
X242394Y217444D01*
X242982Y217200D01*
X243618D01*
X244206Y217444D01*
X244656Y217894D01*
X244900Y218482D01*
Y219118D01*
X244656Y219706D01*
X244206Y220156D01*
X243618Y220400D01*
D02*
G37*
G36*
X233118Y215100D02*
X232482D01*
X231894Y214856D01*
X231444Y214406D01*
X231200Y213818D01*
Y213182D01*
X231444Y212594D01*
X231894Y212144D01*
X232482Y211900D01*
X233118D01*
X233706Y212144D01*
X234156Y212594D01*
X234400Y213182D01*
Y213818D01*
X234156Y214406D01*
X233706Y214856D01*
X233118Y215100D01*
D02*
G37*
G36*
X306918Y205200D02*
X306282D01*
X305694Y204956D01*
X305244Y204506D01*
X305000Y203918D01*
Y203282D01*
X305244Y202694D01*
X305694Y202244D01*
X306282Y202000D01*
X306918D01*
X307506Y202244D01*
X307956Y202694D01*
X308200Y203282D01*
Y203918D01*
X307956Y204506D01*
X307506Y204956D01*
X306918Y205200D01*
D02*
G37*
G36*
X262718D02*
X262082D01*
X261494Y204956D01*
X261044Y204506D01*
X260800Y203918D01*
Y203282D01*
X261044Y202694D01*
X261494Y202244D01*
X262082Y202000D01*
X262718D01*
X263306Y202244D01*
X263756Y202694D01*
X264000Y203282D01*
Y203918D01*
X263756Y204506D01*
X263306Y204956D01*
X262718Y205200D01*
D02*
G37*
G36*
X271874Y176870D02*
X270947Y176748D01*
X270082Y176390D01*
X269340Y175820D01*
X268771Y175078D01*
X268412Y174214D01*
X268290Y173286D01*
Y167380D01*
X268412Y166453D01*
X268771Y165588D01*
X269340Y164846D01*
X270082Y164276D01*
X270947Y163918D01*
X271874Y163796D01*
X272802Y163918D01*
X273666Y164276D01*
X274408Y164846D01*
X274978Y165588D01*
X275336Y166453D01*
X275458Y167380D01*
Y173286D01*
X275336Y174214D01*
X274978Y175078D01*
X274408Y175820D01*
X273666Y176390D01*
X272802Y176748D01*
X271874Y176870D01*
D02*
G37*
G36*
X264000D02*
X263073Y176748D01*
X262208Y176390D01*
X261466Y175820D01*
X260896Y175078D01*
X260539Y174214D01*
X260416Y173286D01*
Y167380D01*
X260539Y166453D01*
X260896Y165588D01*
X261466Y164846D01*
X262208Y164276D01*
X263073Y163918D01*
X264000Y163796D01*
X264928Y163918D01*
X265792Y164276D01*
X266534Y164846D01*
X267104Y165588D01*
X267462Y166453D01*
X267584Y167380D01*
Y173286D01*
X267462Y174214D01*
X267104Y175078D01*
X266534Y175820D01*
X265792Y176390D01*
X264928Y176748D01*
X264000Y176870D01*
D02*
G37*
G36*
X256126D02*
X255198Y176748D01*
X254334Y176390D01*
X253592Y175820D01*
X253022Y175078D01*
X252664Y174214D01*
X252542Y173286D01*
Y167380D01*
X252664Y166453D01*
X253022Y165588D01*
X253592Y164846D01*
X254334Y164276D01*
X255198Y163918D01*
X256126Y163796D01*
X257053Y163918D01*
X257918Y164276D01*
X258660Y164846D01*
X259229Y165588D01*
X259587Y166453D01*
X259710Y167380D01*
Y173286D01*
X259587Y174214D01*
X259229Y175078D01*
X258660Y175820D01*
X257918Y176390D01*
X257053Y176748D01*
X256126Y176870D01*
D02*
G37*
G36*
X302386Y146358D02*
X296480D01*
X295553Y146236D01*
X294688Y145878D01*
X293946Y145308D01*
X293376Y144566D01*
X293019Y143702D01*
X292896Y142774D01*
X293019Y141847D01*
X293376Y140982D01*
X293946Y140240D01*
X294688Y139670D01*
X295553Y139312D01*
X296480Y139190D01*
X302386D01*
X303314Y139312D01*
X304178Y139670D01*
X304920Y140240D01*
X305490Y140982D01*
X305848Y141847D01*
X305970Y142774D01*
X305848Y143702D01*
X305490Y144566D01*
X304920Y145308D01*
X304178Y145878D01*
X303314Y146236D01*
X302386Y146358D01*
D02*
G37*
G36*
Y138484D02*
X296480D01*
X295553Y138362D01*
X294688Y138004D01*
X293946Y137434D01*
X293376Y136692D01*
X293019Y135828D01*
X292896Y134900D01*
X293019Y133973D01*
X293376Y133108D01*
X293946Y132366D01*
X294688Y131796D01*
X295553Y131438D01*
X296480Y131316D01*
X302386D01*
X303314Y131438D01*
X304178Y131796D01*
X304920Y132366D01*
X305490Y133108D01*
X305848Y133973D01*
X305970Y134900D01*
X305848Y135828D01*
X305490Y136692D01*
X304920Y137434D01*
X304178Y138004D01*
X303314Y138362D01*
X302386Y138484D01*
D02*
G37*
G36*
Y130610D02*
X296480D01*
X295553Y130488D01*
X294688Y130130D01*
X293946Y129560D01*
X293376Y128818D01*
X293019Y127954D01*
X292896Y127026D01*
X293019Y126099D01*
X293376Y125234D01*
X293946Y124492D01*
X294688Y123922D01*
X295553Y123564D01*
X296480Y123442D01*
X302386D01*
X303314Y123564D01*
X304178Y123922D01*
X304920Y124492D01*
X305490Y125234D01*
X305848Y126099D01*
X305970Y127026D01*
X305848Y127954D01*
X305490Y128818D01*
X304920Y129560D01*
X304178Y130130D01*
X303314Y130488D01*
X302386Y130610D01*
D02*
G37*
G36*
X252718Y85869D02*
X252082D01*
X251494Y85625D01*
X251044Y85175D01*
X250800Y84587D01*
Y83950D01*
X251044Y83362D01*
X251494Y82912D01*
X252082Y82669D01*
X252718D01*
X253306Y82912D01*
X253756Y83362D01*
X254000Y83950D01*
Y84587D01*
X253756Y85175D01*
X253306Y85625D01*
X252718Y85869D01*
D02*
G37*
G36*
X173318D02*
X172682D01*
X172094Y85625D01*
X171644Y85175D01*
X171400Y84587D01*
Y83950D01*
X171644Y83362D01*
X172094Y82912D01*
X172682Y82669D01*
X173318D01*
X173906Y82912D01*
X174356Y83362D01*
X174600Y83950D01*
Y84587D01*
X174356Y85175D01*
X173906Y85625D01*
X173318Y85869D01*
D02*
G37*
G36*
Y60300D02*
X172682D01*
X172094Y60056D01*
X171644Y59606D01*
X171400Y59018D01*
Y58382D01*
X171644Y57794D01*
X172094Y57344D01*
X172682Y57100D01*
X173318D01*
X173906Y57344D01*
X174356Y57794D01*
X174600Y58382D01*
Y59018D01*
X174356Y59606D01*
X173906Y60056D01*
X173318Y60300D01*
D02*
G37*
G36*
X273218Y55600D02*
X272582D01*
X271994Y55356D01*
X271544Y54906D01*
X271300Y54318D01*
Y53682D01*
X271544Y53094D01*
X271994Y52644D01*
X272582Y52400D01*
X273218D01*
X273806Y52644D01*
X274256Y53094D01*
X274500Y53682D01*
Y54318D01*
X274256Y54906D01*
X273806Y55356D01*
X273218Y55600D01*
D02*
G37*
G36*
X233418Y43900D02*
X232782D01*
X232194Y43656D01*
X231744Y43206D01*
X231500Y42618D01*
Y41982D01*
X231744Y41394D01*
X232194Y40944D01*
X232782Y40700D01*
X233418D01*
X234006Y40944D01*
X234456Y41394D01*
X234700Y41982D01*
Y42618D01*
X234456Y43206D01*
X234006Y43656D01*
X233418Y43900D01*
D02*
G37*
G36*
X217718D02*
X217082D01*
X216494Y43656D01*
X216044Y43206D01*
X215800Y42618D01*
Y41982D01*
X216044Y41394D01*
X216494Y40944D01*
X217082Y40700D01*
X217718D01*
X218306Y40944D01*
X218756Y41394D01*
X219000Y41982D01*
Y42618D01*
X218756Y43206D01*
X218306Y43656D01*
X217718Y43900D01*
D02*
G37*
G36*
X209818D02*
X209182D01*
X208594Y43656D01*
X208144Y43206D01*
X207900Y42618D01*
Y41982D01*
X208144Y41394D01*
X208594Y40944D01*
X209182Y40700D01*
X209818D01*
X210406Y40944D01*
X210856Y41394D01*
X211100Y41982D01*
Y42618D01*
X210856Y43206D01*
X210406Y43656D01*
X209818Y43900D01*
D02*
G37*
G36*
X273718Y39800D02*
X273082D01*
X272494Y39556D01*
X272044Y39106D01*
X271800Y38518D01*
Y37882D01*
X272044Y37294D01*
X272494Y36844D01*
X273082Y36600D01*
X273718D01*
X274306Y36844D01*
X274756Y37294D01*
X275000Y37882D01*
Y38518D01*
X274756Y39106D01*
X274306Y39556D01*
X273718Y39800D01*
D02*
G37*
G36*
X284318Y16400D02*
X283682D01*
X283094Y16156D01*
X282644Y15706D01*
X282400Y15118D01*
Y14482D01*
X282644Y13894D01*
X283094Y13444D01*
X283682Y13200D01*
X284318D01*
X284906Y13444D01*
X285356Y13894D01*
X285600Y14482D01*
Y15118D01*
X285356Y15706D01*
X284906Y16156D01*
X284318Y16400D01*
D02*
G37*
%LPD*%
D168*
X127880Y223807D02*
D03*
X175469Y204570D02*
D03*
X176751Y285769D02*
D03*
X123500Y123753D02*
D03*
X158256D02*
D03*
X123122Y227179D02*
D03*
X132200D02*
D03*
X123122Y236336D02*
D03*
X117104Y207418D02*
D03*
X121200Y247000D02*
D03*
X58104Y133900D02*
D03*
X75200Y52800D02*
D03*
X155700Y292100D02*
D03*
X150061Y292100D02*
D03*
X167164Y285769D02*
D03*
X172400Y290351D02*
D03*
X201025Y178648D02*
D03*
X87500Y106474D02*
D03*
X147442Y227179D02*
D03*
X119186Y135547D02*
D03*
X121300Y87300D02*
D03*
X43100Y106800D02*
D03*
X134706Y148429D02*
D03*
X53660Y62754D02*
D03*
X162800Y51700D02*
D03*
X44347Y74851D02*
D03*
X90262Y74700D02*
D03*
X272976Y220500D02*
D03*
X184202Y92731D02*
D03*
X162800Y29000D02*
D03*
X276300Y21800D02*
D03*
X187600Y10200D02*
D03*
X257700Y294059D02*
D03*
Y307300D02*
D03*
X234300Y294059D02*
D03*
Y300983D02*
D03*
X234052Y307557D02*
D03*
X225300Y294059D02*
D03*
X225017Y300983D02*
D03*
Y307557D02*
D03*
Y256600D02*
D03*
X217973Y256799D02*
D03*
X212400Y248912D02*
D03*
Y254094D02*
D03*
Y259951D02*
D03*
Y265150D02*
D03*
X94284Y259894D02*
D03*
X65267Y274124D02*
D03*
X94284Y256357D02*
D03*
X23068Y235200D02*
D03*
X17857D02*
D03*
X13339D02*
D03*
X17857Y240269D02*
D03*
X13401D02*
D03*
X25650Y277958D02*
D03*
X31750Y280834D02*
D03*
X35500Y283800D02*
D03*
X31750Y286932D02*
D03*
D182*
X154700Y151300D02*
D03*
D183*
X108000Y299740D02*
D03*
M02*
