G04*
G04 #@! TF.GenerationSoftware,Altium Limited,Altium Designer,21.6.1 (37)*
G04*
G04 Layer_Color=32896*
%FSLAX25Y25*%
%MOIN*%
G70*
G04*
G04 #@! TF.SameCoordinates,95DD4E70-6A61-474B-92DE-76CD3143066D*
G04*
G04*
G04 #@! TF.FilePolarity,Positive*
G04*
G01*
G75*
%ADD13C,0.00787*%
%ADD186R,0.44500X0.67700*%
D13*
X281513Y296037D02*
Y298136D01*
X280463Y299185D01*
X279414Y298136D01*
Y296037D01*
Y297611D01*
X281513D01*
X278364Y296037D02*
X276790D01*
X276265Y296562D01*
X276790Y297087D01*
X277839D01*
X278364Y297611D01*
X277839Y298136D01*
X276265D01*
X275215Y296037D02*
X273641D01*
X273116Y296562D01*
X273641Y297087D01*
X274691D01*
X275215Y297611D01*
X274691Y298136D01*
X273116D01*
X270493Y296037D02*
X271542D01*
X272067Y296562D01*
Y297611D01*
X271542Y298136D01*
X270493D01*
X269968Y297611D01*
Y297087D01*
X272067D01*
X268918Y296037D02*
Y298136D01*
X268393D01*
X267869Y297611D01*
Y296037D01*
Y297611D01*
X267344Y298136D01*
X266819Y297611D01*
Y296037D01*
X265770Y299185D02*
Y296037D01*
X264195D01*
X263671Y296562D01*
Y297087D01*
Y297611D01*
X264195Y298136D01*
X265770D01*
X262621Y296037D02*
X261572D01*
X262096D01*
Y299185D01*
X262621D01*
X259997Y298136D02*
Y296562D01*
X259472Y296037D01*
X257898D01*
Y295512D01*
X258423Y294987D01*
X258948D01*
X257898Y296037D02*
Y298136D01*
X253700Y296037D02*
Y299185D01*
X252126D01*
X251601Y298661D01*
Y297611D01*
X252126Y297087D01*
X253700D01*
X252650D02*
X251601Y296037D01*
X248452Y299185D02*
X250552D01*
Y296037D01*
X248452D01*
X250552Y297611D02*
X249502D01*
X247403Y299185D02*
Y297087D01*
X246353Y296037D01*
X245304Y297087D01*
Y299185D01*
X244254Y296037D02*
Y296562D01*
X243729D01*
Y296037D01*
X244254D01*
D186*
X260050Y257750D02*
D03*
M02*
